<?xml version="1.0" standalone="no"?>
<!DOCTYPE svg PUBLIC "-//W3C//DTD SVG 1.1//EN" "http://www.w3.org/Graphics/SVG/1.1/DTD/svg11.dtd" >
<!--
2013-9-30: Created.
-->
<svg>
<metadata>
Created by iconfont
</metadata>
<defs>

<font id="custom-icon" horiz-adv-x="1024" >
  <font-face
    font-family="custom-icon"
    font-weight="500"
    font-stretch="normal"
    units-per-em="1024"
    ascent="896"
    descent="-128"
  />
    <missing-glyph />
    
    <glyph glyph-name="fangda" unicode="&#59231;" d="M165.3-4.2c-11.4 0-22.8 4.4-31.5 13.1-17.4 17.4-17.4 45.7 0 63.1l260.3 260.3c17.4 17.4 45.7 17.4 63.1 0s17.4-45.7 0-63.1L196.8 8.9c-8.7-8.8-20.1-13.1-31.5-13.1zM594.1 424.6c-11.4 0-22.8 4.4-31.5 13.1-17.4 17.4-17.4 45.7 0 63.1l260.9 260.9c17.4 17.4 45.7 17.4 63.1 0s17.4-45.7 0-63.1L625.7 437.7c-8.7-8.7-20.2-13.1-31.6-13.1zM878.1 406.5c-24.6 0-44.6 20-44.6 44.6V674.5c0 18.8-15.3 34.1-34.1 34.1H576c-24.6 0-44.6 20-44.6 44.6s20 44.6 44.6 44.6h223.4c68 0 123.3-55.3 123.3-123.3v-223.4c0-24.6-20-44.6-44.6-44.6zM444.6-27.7H221.3c-68 0-123.3 55.3-123.3 123.3V319c0 24.6 20 44.6 44.6 44.6s44.6-20 44.6-44.6v-223.3c0-18.8 15.3-34.1 34.1-34.1h223.3c24.6 0 44.6-20 44.6-44.6 0.1-24.7-19.9-44.7-44.6-44.7z"  horiz-adv-x="1024" />

    
    <glyph glyph-name="suoxiao" unicode="&#59232;" d="M164.1-9.8c-11.4 0-22.8 4.4-31.6 13.1-17.4 17.4-17.4 45.7 0 63.1L393 326.8c17.4 17.4 45.7 17.4 63.1 0s17.4-45.7 0-63.1L195.7 3.3c-8.7-8.8-20.2-13.1-31.6-13.1zM601.8 429.4c-11.4 0-22.8 4.4-31.6 13.1-17.4 17.4-17.4 45.7 0 63.1l261 261c17.4 17.4 45.7 17.4 63.1 0s17.4-45.7 0-63.1l-261-261c-8.7-8.8-20.1-13.1-31.5-13.1zM880.9 406.3H657.5c-68 0-123.4 55.3-123.4 123.4V753.1c0 24.7 20 44.6 44.6 44.6 24.7 0 44.6-20 44.6-44.6v-223.5c0-18.8 15.3-34.1 34.1-34.1h223.5c24.7 0 44.6-20 44.6-44.6 0.1-24.6-19.9-44.6-44.6-44.6zM447.3-28.1c-24.7 0-44.6 20-44.6 44.6V240c0 18.8-15.3 34.1-34.1 34.1H145.1c-24.7 0-44.6 20-44.6 44.6 0 24.7 20 44.6 44.6 44.6h223.5c68 0 123.4-55.3 123.4-123.4v-223.5c-0.1-24.5-20.1-44.5-44.7-44.5z"  horiz-adv-x="1024" />

    
    <glyph glyph-name="xia" unicode="&#59233;" d="M513-21.9c-24.8 0-44.9 20.1-44.9 44.9l0.7 723.7c0 24.8 20.1 44.8 44.9 44.8 24.8 0 44.8-20.1 44.8-44.9l-0.7-723.7c0-24.7-20-44.8-44.8-44.8zM513-20.9c-54 0-104.8 21-142.9 59.2l-259 258.9c-17.5 17.5-17.5 45.9 0 63.4s45.9 17.5 63.4 0l258.9-258.9c21.2-21.2 49.5-32.9 79.5-32.9s58.3 11.7 79.5 32.9l258.9 258.9c17.5 17.5 45.9 17.5 63.4 0s17.5-45.9 0-63.4L655.9 38.3c-38.1-38.2-88.9-59.2-142.9-59.2z"  horiz-adv-x="1024" />

    
    <glyph glyph-name="zuo" unicode="&#59234;" d="M872.4 339.4s-0.1 0 0 0l-719.9 0.6c-24.6 0-44.6 20-44.6 44.7 0 24.6 20 44.6 44.6 44.6l719.8-0.7c24.6 0 44.6-20 44.6-44.7 0.1-24.6-19.9-44.5-44.5-44.5zM456.8-28.1c-11.4 0-22.8 4.4-31.5 13.1L167.7 242.5c-78.4 78.4-78.4 205.9 0 284.3l257.5 257.5c17.4 17.4 45.7 17.4 63.1 0s17.4-45.7 0-63.1L230.8 463.7c-43.6-43.6-43.6-114.5 0-158.1l257.5-257.5c17.4-17.4 17.4-45.7 0-63.1-8.6-8.7-20.1-13.1-31.5-13.1z"  horiz-adv-x="1024" />

    
    <glyph glyph-name="lianjie1" unicode="&#59235;" d="M658.8-24.9c-101.6 0-184.2 82.6-184.2 184.2V614.4c0 61.1-49.8 110.9-110.9 110.9s-110.9-49.8-110.9-110.9v-518c0-20.3-16.4-36.7-36.7-36.7s-36.7 16.4-36.7 36.7v518C179.4 716 262 798.6 363.6 798.6S547.9 716 547.9 614.4v-455.1c0-61.1 49.8-110.9 110.9-110.9 61.1 0 110.9 49.8 110.9 110.9v517c0 20.3 16.4 36.7 36.7 36.7s36.7-16.4 36.7-36.7v-517c-0.1-101.5-82.7-184.2-184.3-184.2zM888.3 634.5H724.4c-16.9 0-32.2 10.2-38.7 25.9a41.9 41.9 0 0 0 9.1 45.7l82 82c7.9 7.9 18.5 12.3 29.6 12.3 11.1 0 21.8-4.4 29.6-12.3l81.9-82c12-12 15.6-30 9.1-45.7s-21.7-25.9-38.7-25.9zM216.1-27.4c-11.1 0-21.8 4.4-29.6 12.3l-82 82c-12 12-15.6 30-9.1 45.7 6.5 15.7 21.8 25.9 38.7 25.9H298c16.9 0 32.2-10.2 38.7-25.9s2.9-33.7-9.1-45.7l-81.9-82c-7.8-7.9-18.4-12.3-29.6-12.3z"  horiz-adv-x="1024" />

    
    <glyph glyph-name="quanping" unicode="&#59236;" d="M167.8-7.1c-11.5 0-22.9 4.4-31.7 13.1-17.5 17.5-17.5 45.8 0 63.3l221.1 221.1c17.5 17.5 45.9 17.5 63.3 0 17.5-17.5 17.5-45.8 0-63.3L199.4 6c-8.7-8.7-20.2-13.1-31.6-13.1zM638.5 463.6c-11.5 0-22.9 4.4-31.7 13.1-17.5 17.5-17.5 45.8 0 63.3l221.7 221.7c17.5 17.5 45.8 17.5 63.3 0s17.5-45.8 0-63.3L670.1 476.7c-8.7-8.7-20.2-13.1-31.6-13.1zM859.7-7.8c-11.5 0-23 4.4-31.7 13.1L606.7 227.2c-17.5 17.5-17.4 45.9 0.1 63.4s45.9 17.4 63.3-0.1l221.4-221.9c17.5-17.5 17.4-45.9-0.1-63.4-8.8-8.7-20.2-13-31.7-13zM389 463.9c-11.5 0-23 4.4-31.7 13.1L136.1 698.8c-17.5 17.5-17.4 45.9 0.1 63.4s45.9 17.4 63.3-0.1l221.2-221.7c17.5-17.5 17.4-45.9-0.1-63.4-8.7-8.7-20.2-13.1-31.6-13.1zM145 526c-24.7 0-44.8 20.1-44.8 44.8V674.2C100.2 742.5 155.7 798 224 798h103.4c24.7 0 44.8-20.1 44.8-44.8s-20.1-44.8-44.8-44.8H224c-18.9 0-34.2-15.3-34.2-34.2v-103.4c0-24.7-20.1-44.8-44.8-44.8zM883.3 526c-24.7 0-44.8 20.1-44.8 44.8V674.2c0 18.9-15.3 34.2-34.2 34.2H700.8c-24.7 0-44.8 20.1-44.8 44.8S676.1 798 700.8 798h103.5c68.2 0 123.8-55.5 123.8-123.8v-103.5c0-24.7-20.1-44.7-44.8-44.7zM327.5-30.6H224c-68.2 0-123.8 55.5-123.8 123.8V196.6c0 24.7 20.1 44.8 44.8 44.8s44.8-20.1 44.8-44.8v-103.5c0-18.9 15.3-34.2 34.2-34.2h103.5c24.7 0 44.8-20.1 44.8-44.8s-20.1-44.7-44.8-44.7zM804.3-30.6H700.8c-24.7 0-44.8 20.1-44.8 44.8s20.1 44.8 44.8 44.8h103.5c18.9 0 34.2 15.4 34.2 34.2V196.6c0 24.7 20.1 44.8 44.8 44.8 24.7 0 44.8-20.1 44.8-44.8v-103.5c0-68.2-55.6-123.7-123.8-123.7z"  horiz-adv-x="1024" />

    
    <glyph glyph-name="you" unicode="&#59237;" d="M874.9 337.9s-0.1 0 0 0l-723.8 0.7c-24.8 0-44.8 20.1-44.8 44.9 0 24.8 20.1 44.8 44.9 44.8l723.7-0.7c24.8 0 44.8-20.1 44.8-44.9 0-24.7-20.1-44.8-44.8-44.8zM568.9-32.2c-11.5 0-23 4.4-31.7 13.1-17.5 17.5-17.5 45.9 0 63.4l258.9 258.9c43.8 43.8 43.8 115.2 0 159l-258.9 259c-17.5 17.5-17.5 45.9 0 63.4s45.9 17.5 63.4 0l258.9-258.9c78.8-78.8 78.8-207.1 0-285.9L600.7-19.1c-8.8-8.7-20.3-13.1-31.8-13.1z"  horiz-adv-x="1024" />

    
    <glyph glyph-name="shuaxin" unicode="&#59238;" d="M512.3 17.2c-201.6 0-365.5 164-365.5 365.5 0 24.7 20 44.6 44.6 44.6s44.6-20 44.6-44.6c0-152.3 123.9-276.3 276.3-276.3 86.7 0 166.7 39.5 219.4 108.4 15 19.6 43 23.3 62.6 8.3s23.3-43 8.3-62.6c-69.8-91-175.7-143.3-290.3-143.3zM833.2 338.1c-24.7 0-44.6 20-44.6 44.6 0 152.4-123.9 276.3-276.3 276.3-86.3 0-166-39.2-218.8-107.6-15.1-19.5-43.1-23.1-62.6-8-19.5 15.1-23.1 43.1-8.1 62.6 69.8 90.5 175.4 142.3 289.5 142.3 201.6 0 365.6-164 365.6-365.6-0.1-24.6-20-44.6-44.7-44.6zM833.2 296.4c-11.4 0-22.8 4.4-31.6 13.1l-80.8 80.8c-12.8 12.8-16.6 32-9.7 48.6 6.9 16.7 23.2 27.6 41.2 27.6H914c18.1 0 34.3-10.9 41.2-27.6 6.9-16.7 3.1-35.9-9.7-48.6l-80.8-80.8c-8.7-8.7-20.1-13.1-31.5-13.1zM272.2 297.7H110.5c-18.1 0-34.3 10.9-41.2 27.6-6.9 16.7-3.1 35.9 9.7 48.6l80.8 80.8c8.4 8.4 19.7 13.1 31.6 13.1 11.8 0 23.2-4.7 31.6-13.1l80.8-80.8c12.8-12.8 16.6-32 9.7-48.6s-23.2-27.6-41.3-27.6z"  horiz-adv-x="1024" />

    
    <glyph glyph-name="shuaxin_2" unicode="&#59239;" d="M875.7 385.7c-24.7 0-44.7 20-44.7 44.7V554.2c0 19.7-16 35.7-35.6 35.7l-651.2 0.3c-24.7 0-44.7 20-44.7 44.7 0 24.7 20 44.7 44.7 44.7l651.2-0.3c68.9 0 125-56.1 125-125.1v-123.7c0-24.7-20.1-44.8-44.7-44.8zM874 90c-0.1 0-0.1 0 0 0l-651.2 0.3c-68.9 0-125 56.1-125 125.1V334.79999999999995c0 24.7 20 44.7 44.7 44.7s44.7-20 44.7-44.7v-119.5c0-19.7 16-35.7 35.6-35.7l651.2-0.3c24.7 0 44.7-20 44.7-44.7-0.1-24.7-20.1-44.6-44.7-44.6zM188.6 510.7c-11.6 0-23.1 4.5-31.6 13.1l-79.5 79.4c-8.4 8.4-13.1 19.8-13.1 31.6s4.7 23.2 13.1 31.6l79.5 79.4c12.8 12.8 32 16.6 48.7 9.7 16.7-6.9 27.6-23.2 27.6-41.3v-158.9c0-18.1-10.9-34.4-27.6-41.3-5.5-2.2-11.3-3.3-17.1-3.3zM834.2 10.5c-5.8 0-11.6 1.1-17.1 3.4-16.7 6.9-27.6 23.2-27.6 41.3V214.10000000000002c0 18.1 10.9 34.4 27.6 41.3 16.7 6.9 35.9 3.1 48.7-9.7l79.4-79.4c17.5-17.5 17.5-45.7 0-63.2l-79.4-79.5c-8.5-8.6-19.9-13.1-31.6-13.1z"  horiz-adv-x="1024" />

    
    <glyph glyph-name="shuaxin_3" unicode="&#59240;" d="M833.9 354.29999999999995c-24.7 0-44.7 20-44.7 44.7l-0.3 273.1c0 20-16.2 36.2-36.2 36.2H268.3c-19.2 0-34.7-15.6-34.7-34.7v-86.2c0-24.7-20-44.7-44.7-44.7s-44.7 20-44.7 44.7v86.2c0 68.5 55.7 124.2 124.2 124.2h484.3c69.3 0 125.6-56.4 125.7-125.6l0.3-273.1c-0.1-24.8-20.1-44.8-44.8-44.8zM754.4-30.399999999999977H270.1c-69.3 0-125.6 56.3-125.7 125.6l-0.3 293.3c0 24.7 20 44.8 44.7 44.8 24.7 0 44.7-20 44.7-44.7l0.3-293.3c0-20 16.3-36.2 36.2-36.2h484.3c19.1 0 34.7 15.6 34.7 34.7V198.70000000000005c0 24.7 20 44.7 44.7 44.7s44.7-20 44.7-44.7v-104.9c0.2-68.5-55.5-124.2-124-124.2zM833.9 319c-11.9 0-23.2 4.7-31.6 13.1l-80 80c-12.8 12.8-16.6 32-9.7 48.7 6.9 16.7 23.2 27.6 41.3 27.6H914c18.1 0 34.4-10.9 41.3-27.6 6.9-16.7 3.1-35.9-9.7-48.7l-80-80c-8.5-8.4-19.9-13.1-31.7-13.1zM268.9 303.79999999999995H108.8c-18.1 0-34.4 10.9-41.3 27.6-6.9 16.7-3.1 35.9 9.7 48.7l80 80c17.5 17.5 45.8 17.5 63.3 0l80-80c12.8-12.8 16.6-32 9.7-48.7-6.9-16.7-23.2-27.6-41.3-27.6z"  horiz-adv-x="1024" />

    
    <glyph glyph-name="jiaoji" unicode="&#59241;" d="M266.5 101.2H106.1c-21.7 0-39.2 17.6-39.2 39.2 0 21.7 17.6 39.2 39.2 39.2h160.4c111.3 0 201.8 90.5 201.8 201.8 0 154.5 125.7 280.2 280.2 280.2h84.6c21.7 0 39.2-17.6 39.2-39.2s-17.6-39.2-39.2-39.2h-84.6c-111.3 0-201.8-90.5-201.8-201.8 0.1-154.5-125.6-280.2-280.2-280.2zM833.1 497.8c-5.8 0-11.6 1.1-17.1 3.4-16.8 6.9-27.7 23.3-27.7 41.4V702.2c0 18.1 10.9 34.5 27.7 41.4 16.7 7 36 3.1 48.8-9.7l79.7-79.7c17.5-17.5 17.5-45.9 0-63.4L864.8 511c-8.6-8.6-20-13.2-31.7-13.2zM833.1 101.2h-84.6c-154.5 0-280.2 125.7-280.2 280.2 0 111.3-90.5 201.8-201.8 201.8H106.1c-21.7 0-39.2 17.6-39.2 39.2s17.6 39.2 39.2 39.2h160.4c154.5 0 280.2-125.7 280.2-280.2 0-111.3 90.5-201.8 201.8-201.8h84.6c21.7 0 39.2-17.6 39.2-39.2s-17.5-39.2-39.2-39.2zM833.1 15.9c-5.8 0-11.6 1.1-17.1 3.4-16.8 6.9-27.7 23.3-27.7 41.4V220.2c0 18.1 10.9 34.5 27.7 41.4 16.7 6.9 36 3.1 48.8-9.7l79.7-79.7c17.5-17.5 17.5-45.9 0-63.4L864.8 29c-8.6-8.6-20-13.1-31.7-13.1z"  horiz-adv-x="1024" />

    
    <glyph glyph-name="jiantou_2" unicode="&#59242;" d="M143.4-32c-11.4 0-22.9 4.4-31.6 13.1-17.4 17.4-17.4 45.7 0 63.1L818 749.9c17.4 17.4 45.7 17.4 63.1 0s17.4-45.7 0-63.1L174.9-19c-8.7-8.7-20.1-13-31.5-13zM879.9 461.4c-24.6 0-44.6 20-44.6 44.6V667c0 20.4-16.6 36.9-36.9 36.9h-161c-24.6 0-44.6 20-44.6 44.6s20 44.6 44.6 44.6h161c69.6 0 126.2-56.6 126.2-126.2v-161c-0.1-24.6-20.1-44.5-44.7-44.5zM504.6 342.9c-11.4 0-22.9 4.4-31.6 13.1L112 717.2c-17.4 17.4-17.4 45.7 0 63.1s45.7 17.4 63.1 0l361-361.2c17.4-17.4 17.4-45.7 0-63.1-8.6-8.7-20.1-13.1-31.5-13.1zM849.4-2c-11.4 0-22.9 4.4-31.6 13.1L591.2 237.79999999999995c-17.4 17.5-17.4 45.7 0 63.1s45.7 17.4 63.1 0l226.5-226.7c17.4-17.5 17.4-45.7 0-63.1-8.6-8.8-20-13.1-31.4-13.1zM798.7-32.299999999999955H637c-24.6 0-44.6 20-44.6 44.6s20 44.6 44.6 44.6h161.7c20 0 36.3 16.3 36.3 36.3V254.89999999999998c0 24.6 20 44.6 44.6 44.6s44.6-20 44.6-44.6v-161.7c0-69.2-56.3-125.5-125.5-125.5z"  horiz-adv-x="1024" />

    
    <glyph glyph-name="zhongxinshouquan" unicode="&#59243;" d="M886.5 496.4l-714.3 0.3c-22.9 0-41.5 18.6-41.5 41.5s18.6 41.5 41.5 41.5l714.3-0.3c22.9 0 41.5-18.6 41.5-41.5 0-23-18.6-41.5-41.5-41.5zM213.7 422.5c-10.8 0-21.4 4.2-29.3 12.1l-74.2 74.2c-7.8 7.8-12.2 18.3-12.2 29.4 0 11 4.4 21.6 12.2 29.3l74.2 74.2c11.9 11.9 29.7 15.5 45.2 9 15.5-6.4 25.6-21.6 25.6-38.3V464c0-16.8-10.1-31.9-25.6-38.3-5.1-2.2-10.5-3.2-15.9-3.2zM853.8 186.9l-714.3 0.3c-22.9 0-41.5 18.6-41.5 41.5s18.6 41.5 41.5 41.5l714.3-0.3c22.9 0 41.5-18.6 41.5-41.5s-18.6-41.5-41.5-41.5zM812.3 112.7c-5.3 0-10.7 1-15.9 3.2-15.5 6.4-25.6 21.6-25.6 38.3V302.6c0 16.8 10.1 31.9 25.6 38.3 15.5 6.4 33.3 2.9 45.2-9l74.2-74.2c7.8-7.8 12.2-18.3 12.2-29.4 0-11-4.4-21.6-12.2-29.3l-74.2-74.2c-7.9-7.9-18.5-12.1-29.3-12.1z"  horiz-adv-x="1024" />

    
    <glyph glyph-name="shangchuan" unicode="&#59244;" d="M789.7 38.3h-69.8c-24.7 0-44.7 20-44.7 44.7 0 24.7 20 44.7 44.7 44.7h69.8c32.3 0 80.3 42.2 80.3 100.6 0 42.9-27.3 81.1-67.9 95-12.6 4.3-22.7 14.1-27.4 26.6-4.7 12.5-3.5 26.5 3.2 38.1 14.5 25.1 22.2 53.5 22.2 82.3 0 90.8-73.8 164.6-164.6 164.6-81.4 0-149.6-58.3-162.3-138.7-2.8-17.4-15.5-31.6-32.5-36.2-17-4.6-35.1 1.2-46.3 14.9-14.8 18.1-36.6 28.4-59.9 28.4-42.6 0-77.3-34.7-77.3-77.3 0-12.2 2.9-24 8.5-35.1 6.4-12.4 6.5-27.1 0.5-39.7-6-12.6-17.6-21.6-31.3-24.4-46.4-9.6-80.1-51-80.1-98.4 0-55.4 45.1-100.6 100.5-100.6H313c24.7 0 44.7-20 44.7-44.7 0-24.7-20-44.7-44.7-44.7h-57.8c-104.7 0-189.9 85.2-189.9 190 0 72.8 42 138 104.7 169.7-1.5 9.1-2.3 18.5-2.3 27.9 0 91.9 74.8 166.7 166.7 166.7 24.8 0 48.7-5.4 70.5-15.6 40.4 88.2 128.8 147.2 230.5 147.2 140.1 0 254-114 254-254 0-28.7-4.9-57.2-14.5-84.2 51.8-34.6 84.4-93.4 84.4-157.8 0-99.5-80.8-190-169.6-190zM512.3 79.6c-24.7 0-44.7 20-44.7 44.7V356.4c0 24.7 20 44.7 44.7 44.7 24.7 0 44.7-20 44.7-44.7v-232.1c0-24.7-20-44.7-44.7-44.7zM592.8 242.4h-161c-18.1 0-34.4 10.9-41.3 27.6-6.9 16.7-3.1 35.9 9.7 48.7l80.5 80.5c16.7 16.8 46.4 16.8 63.2 0l80.5-80.5c12.8-12.8 16.6-32 9.7-48.7-6.9-16.7-23.2-27.6-41.3-27.6z"  horiz-adv-x="1024" />

    
    <glyph glyph-name="xiazai" unicode="&#59245;" d="M790.7 51.5h-69.8c-24.7 0-44.7 20-44.7 44.7s20 44.7 44.7 44.7h69.8c32.3 0 80.2 42.2 80.2 100.5 0 42.9-27.3 81-67.9 95-12.6 4.3-22.7 14.1-27.4 26.6-4.7 12.5-3.5 26.5 3.2 38.1 14.5 25.1 22.2 53.5 22.2 82.2 0 90.8-73.8 164.6-164.6 164.6-81.3 0-149.6-58.3-162.3-138.7-2.7-17.4-15.5-31.6-32.5-36.2-17-4.6-35.1 1.2-46.3 14.9-14.8 18.1-36.6 28.4-59.9 28.4-42.6 0-77.3-34.7-77.3-77.3 0-12.2 2.9-24 8.5-35 6.3-12.4 6.5-27.1 0.5-39.7-6-12.6-17.6-21.6-31.3-24.4-46.4-9.6-80-51-80-98.4 0-55.4 45.1-100.5 100.5-100.5H314c24.7 0 44.7-20 44.7-44.7s-20-44.7-44.7-44.7h-57.7c-104.7 0-189.9 85.2-189.9 189.9 0 72.8 41.9 138 104.6 169.7-1.5 9.1-2.3 18.5-2.3 27.9 0 91.9 74.8 166.7 166.7 166.7 24.8 0 48.7-5.4 70.5-15.6 40.4 88.2 128.8 147.2 230.4 147.2 140 0 254-113.9 254-254 0-28.7-4.9-57.1-14.5-84.1 51.8-34.6 84.3-93.4 84.3-157.7 0.3-99.6-80.6-190.1-169.4-190.1zM513.5 104c-24.7 0-44.7 20-44.7 44.7V380.8c0 24.7 20 44.7 44.7 44.7 24.7 0 44.7-20 44.7-44.7v-232.1c-0.1-24.7-20.1-44.7-44.7-44.7zM513.5 92.8c-11.4 0-22.9 4.4-31.6 13.1l-80.5 80.5c-12.8 12.8-16.6 32-9.7 48.7 6.9 16.7 23.2 27.6 41.3 27.6h160.9c18.1 0 34.4-10.9 41.3-27.6 6.9-16.7 3.1-35.9-9.7-48.7L545 105.9c-8.7-8.7-20.1-13.1-31.5-13.1z"  horiz-adv-x="1024" />

    
    <glyph glyph-name="xiangxia" unicode="&#59246;" d="M512.8-63c-36.8 0-71.9 15-98.8 42.4L129.9 267.5c-29.9 30.3-38.3 76-21.4 116.4 15.5 37.1 48.9 60.2 87 60.2h67.7V675.2c0 86.6 64.3 157 143.3 157h208.4c79 0 143.3-70.4 143.3-157v-232.9h68.3c38.1 0 71.4-23 86.9-60 16.9-40.3 8.7-86-21.1-116.3L612-20.3c-26.9-27.5-62.1-42.6-99-42.7h-0.2zM198.1 347.3c-1.4-2.9-2.3-8.8 0.7-11.8L483 47.3c8.7-8.9 19.1-13.5 29.9-13.5h0.1c10.9 0 21.2 4.7 30 13.7l280.4 286.2c3.1 3.2 2 9 0.7 11.8H709.8c-26.7 0-48.4 21.7-48.4 48.4V675.2c0 32.6-21.3 60.2-46.5 60.2H406.6c-25.2 0-46.5-27.6-46.5-60.2v-279.5c0-26.7-21.7-48.4-48.4-48.4H198.1z m659.7-47.5h0.2-0.2z"  horiz-adv-x="1024" />

    
    <glyph glyph-name="zhuanfa_4" unicode="&#59247;" d="M884.8 532.4c-22.9 0-41.5 18.6-41.5 41.5V675.1c0 21.9-17.8 39.7-39.7 39.7H701.3c-22.9 0-41.5 18.6-41.5 41.5s18.6 41.5 41.5 41.5h102.3c67.6 0 122.7-55 122.7-122.7v-101.2c0-22.9-18.6-41.5-41.5-41.5zM511.9 341.1c-10.6 0-21.2 4.1-29.3 12.2-16.2 16.2-16.2 42.5 0 58.7l349.3 349.3c16.2 16.2 42.5 16.2 58.7 0 16.2-16.2 16.2-42.5 0-58.7L541.2 353.20000000000005c-8.1-8.1-18.7-12.1-29.3-12.1zM511.3-32.200000000000045c-228.8 0-415 186.2-415 415s186.2 415 415 415c22.9 0 41.5-18.6 41.5-41.5s-18.6-41.5-41.5-41.5c-183.1 0-332-148.9-332-332s148.9-332 332-332 332 148.9 332 332c0 22.9 18.6 41.5 41.5 41.5s41.5-18.6 41.5-41.5c0-228.8-186.1-415-415-415z"  horiz-adv-x="1024" />

    
    <glyph glyph-name="dianzan_2" unicode="&#59248;" d="M231.2-64.39999999999998c-72.1 0-130.7 58.6-130.7 130.7v399c0 72.1 58.7 130.7 130.7 130.7 72.1 0 130.7-58.6 130.7-130.7v-399c0.1-72.1-58.6-130.7-130.7-130.7z m0 570.9c-22.7 0-41.1-18.4-41.1-41.1v-399c0-22.7 18.4-41.1 41.1-41.1 22.7 0 41.1 18.4 41.1 41.1v399c0 22.6-18.4 41.1-41.1 41.1zM728.4-64.39999999999998H391.8c-65.9 0-119.5 57-119.5 127.1V487.9c0 24.7 20.1 44.8 44.8 44.8h13c63.6 0 142.5 22.4 173.3 85.3 8.7 17.7 12.9 37.5 12.3 57.4l-0.3 8.5c-0.8 17.6-1.6 37.6 5 60 12.3 41.4 43.7 72.7 84.1 83.5 35.1 9.4 70.9 3.3 100.6-17 35.5-24.3 59.8-66.6 64.9-113.1 6.3-57-7-118.7-25.6-164.7h62.4c34.8 0 67.7-16.1 90.3-44.2 24.5-30.5 33.8-72 25.2-111l-76.5-343.1c-12.9-58.1-61.2-98.7-117.4-98.7z m-366.5 509v-381.9c0-20.3 13.7-37.4 29.9-37.4h336.6c13.9 0 26.3 11.8 30 28.6L834.9 397c2.8 12.7 0 26-7.6 35.4-3.9 4.9-10.6 10.7-20.4 10.7H705.2c-23.4 0-45 12.6-56.6 32.9-11.5 20.3-11.3 45.3 0.7 65.4 19.6 32.8 37.3 95.2 31.7 146.2-2.2 20-12.8 39.6-26.5 48.9-8.3 5.7-16.8 7.1-26.8 4.4-10-2.7-18-11-21.3-22.4-2.4-8.1-2-18-1.4-30.7l0.4-9.6c1.1-34.4-6.3-68.9-21.4-99.6-43.4-88.5-138-126.5-222.1-134z m516.7-57.3h0.2-0.2z"  horiz-adv-x="1024" />

    
    <glyph glyph-name="xiazai_2" unicode="&#59249;" d="M827.8-29.399999999999977H198.2c-72.6 0-131.6 56.3-131.6 125.4V219.89999999999998c0 24.7 20 44.6 44.6 44.6s44.6-20 44.6-44.6V96c0-19.9 19-36.1 42.4-36.1h629.6c23.3 0 42.3 16.2 42.3 36.1V219.89999999999998c0 24.7 20 44.6 44.6 44.6 24.7 0 44.6-20 44.6-44.6V96c0.1-69.1-58.9-125.4-131.5-125.4zM514.6 117.89999999999998c-29.6 0-57.8 12.1-79.4 34L225 365c-24.6 25-31.6 62.6-17.7 95.7 12.9 30.8 40.7 49.9 72.5 49.9h41.3V672.8c0 68.9 51.5 125 114.8 125H590c63.3 0 114.8-56.1 114.8-125v-163.4h41.7c31.8 0 59.6-19.1 72.5-49.8 13.9-33.1 7.1-70.6-17.4-95.7L594.3 152.20000000000005c-21.6-22-49.8-34.2-79.5-34.2-0.1-0.1-0.1-0.1-0.2-0.1z m-220 303.5l204.2-206.8c4.8-4.8 10.2-7.4 15.8-7.4 5.6 0 11.1 2.6 15.8 7.4L731.6 420h-71.4c-24.7 0-44.6 20-44.6 44.6V672.8c0 19-11.9 35.7-25.5 35.7H436c-13.6 0-25.5-16.7-25.5-35.7v-206.7c0-24.7-20-44.6-44.6-44.6h-71.3z m475.2-26.2h0.2-0.2z"  horiz-adv-x="1024" />

    
    <glyph glyph-name="dianpu_2" unicode="&#59250;" d="M742-31.5H292.5c-66 0-119.8 50.9-119.8 113.4V337.20000000000005c0 22.9 18.6 41.5 41.5 41.5s41.5-18.6 41.5-41.5v-255.4c0-16.8 16.5-30.5 36.8-30.5H742c20.3 0 36.8 13.7 36.8 30.5V337.20000000000005c0 22.9 18.6 41.5 41.5 41.5s41.5-18.6 41.5-41.5v-255.4c0-62.5-53.7-113.3-119.8-113.3zM517.6 284.1c-43.9 0-85.8 14.5-118.7 40.2-44.6-31.8-103.3-43.4-159.3-29.6-43.4 10.6-81.2 35.5-106.2 70.1-30.3 41.6-39.6 93.5-25.4 142.4l48.5 202.7c0.2 0.7 0.3 1.4 0.5 2 14.9 50.7 64.2 86 120 86h466.1c51.4 0 98.2-30.4 116.4-75.7 0.4-1 0.8-2.1 1.1-3.1l51.7-165.6c27.8-80.5 19.3-145.9-25.9-193-13-13.8-28.8-25.7-47-35.3-61.5-32.6-137.1-28.6-194 6.9-33.7-30.6-79-48-127.8-48zM400.2 422.8h1c12.6-0.3 24.3-6.3 31.9-16.3 18.8-24.7 50.4-39.4 84.4-39.4 36.2 0 69.9 17.1 88 44.7 2.2 3.3 4.8 6.3 7.8 8.8 14.8 12.8 40.5 12.5 55-0.7 0.8-0.7 1.6-1.5 2.3-2.3 32.3-33.9 87-42 130-19.2 10.2 5.4 18.7 11.8 25.6 19l0.3 0.3c14.2 14.8 30.4 42.3 7 109.8l-51.4 164.9c-6.1 13.5-21.5 22.5-38.9 22.5H277.1c-18.6 0-35.3-10.8-40.2-25.7l-48.7-203.3c-7.6-26.3-3-51.3 12.4-72.4 13.6-18.8 34.4-32.3 58.8-38.2 41-10 83.8 2.8 109.2 32.9 7.8 9.2 19.4 14.6 31.6 14.6zM629.8 347.5h-0.4c-22.9 0-41.5 18.6-41.5 41.5 0 11.5 4.7 21.9 12.2 29.4 7.5 7.6 17.9 12.2 29.4 12.2 11.1 0 21.2-4.4 28.6-11.4 8-7.6 13-18.3 13-30.2 0.2-22.9-18.4-41.5-41.3-41.5zM666.4 118.20000000000005c-22.9 0-41.5 18.6-41.5 41.5v45.7c0 22.9 18.6 41.5 41.5 41.5s41.5-18.6 41.5-41.5v-45.7c0-23-18.6-41.5-41.5-41.5z"  horiz-adv-x="1024" />

    
    <glyph glyph-name="xiangshang" unicode="&#59251;" d="M619.9-63.6H411.8c-78.9 0-143.1 70.3-143.1 156.8V325.7h-68.3c-38 0-71.3 23-86.8 59.9-16.9 40.3-8.6 85.8 21 116.2l280 285.9c26.9 27.4 62 42.6 98.8 42.6h0.2c36.7 0 71.8-15 98.7-42.3l283.8-287.8C926 470 934.4 424.4 917.5 384c-15.5-37-48.8-60-86.9-60H763v-230.8c0-86.5-64.2-156.8-143.1-156.8z m-416.8 486h114c26.7 0 48.3-21.6 48.3-48.3v-280.9c0-32.6 21.3-60.1 46.4-60.1h208.1c25.2 0 46.4 27.5 46.4 60.1V372.3c0 26.7 21.6 48.3 48.3 48.3H828c1.4 2.8 2.5 8.6-0.7 11.8L543.6 720.2c-8.7 8.8-19 13.5-29.9 13.5h-0.1c-10.9 0-21.2-4.7-29.9-13.6l-280-285.9c-3.1-3.2-2-9.1-0.6-11.8z m0.8-1.2h0.2-0.2z"  horiz-adv-x="1024" />

    
    <glyph glyph-name="faming-2" unicode="&#59252;" d="M581.6-62.5h-143c-69.1 0-125.3 56.2-125.3 125.3v51.1C195 183.10000000000002 122.5 308.1 122.5 446.5c0 212.7 173 385.7 385.7 385.7s385.7-173 385.7-385.7c0-136.5-71-260.6-187-330.3v-53.4c0-69.1-56.2-125.3-125.3-125.3z m-73.4 805.2C344.9 742.7 212 609.8 212 446.5c0-113.6 63.6-215.3 165.9-265.7 15.3-7.5 25-23.1 25-40.1v-77.9c0-19.7 16.1-35.8 35.8-35.8h143c19.8 0 35.8 16.1 35.8 35.8v79.7c0 16.8 9.5 32.3 24.5 39.9 100.2 50.9 162.5 152.1 162.5 264-0.1 163.4-133 296.3-296.3 296.3zM547.3 174.10000000000002H469c-24.7 0-44.7 20-44.7 44.7 0 24.7 20 44.7 44.7 44.7h78.3c24.7 0 44.7-20 44.7-44.7 0.1-24.6-20-44.7-44.7-44.7zM510.2 174.10000000000002c-24.7 0-44.7 20-44.7 44.7V424.5c0 24.7 20 44.7 44.7 44.7s44.7-20 44.7-44.7v-205.7c0-24.6-20-44.7-44.7-44.7zM510.2 380.4c-9.9 0-19.8 3.3-28 9.9l-102 81.8c-19.3 15.5-22.3 43.6-6.9 62.9 15.4 19.3 43.6 22.4 62.9 6.9l74-59.4 73.8 59.2c19.3 15.5 47.4 12.4 62.9-6.9s12.4-47.4-6.9-62.9l-101.8-81.6c-8.1-6.6-18-9.9-28-9.9z"  horiz-adv-x="1024" />

    
    <glyph glyph-name="Wi-Fi" unicode="&#59253;" d="M556.1 98c0-24.7-20.1-44.8-44.8-44.8-24.9 0-45 20.1-45 44.8 0 9.9 3.2 19 8.7 26.4 8 11.2 21.3 18.6 36.3 18.6 15 0 28.1-7.4 36.3-18.6 5.3-7.4 8.5-16.5 8.5-26.4zM777.3 310.8c-11.7 0-23.4 4.6-32.1 13.7-61.7 64.1-144.8 99.3-233.9 99.3-89 0-172.2-35.2-234.2-99.2-17.1-17.7-45.4-18.1-63-1-17.7 17.1-18.1 45.4-1 63.1C292 468.1 397.9 513 511.3 513c113.6 0 219.5-45 298.1-126.6 17.1-17.7 16.6-46-1.2-63.1-8.6-8.4-19.7-12.5-30.9-12.5zM912.6 446.1c-11.6 0-23.1 4.5-31.9 13.4C782.6 559.8 651.4 615 511.3 615c-140.2 0-271.4-55.2-369.4-155.5-17.2-17.6-45.4-17.9-63.1-0.7-17.6 17.2-17.9 45.5-0.7 63.1C193 639.5 346.9 704.2 511.3 704.2c164.2 0 318.1-64.8 433.2-182.3 17.2-17.6 16.9-45.8-0.7-63.1-8.7-8.5-19.9-12.7-31.2-12.7zM650.1 183.6c-11.9 0-23.8 4.7-32.6 14.1-27.8 29.7-65.5 46-106.2 46-40.3 0-78.9-16.7-106.1-45.9-16.8-18-45-19-63-2.3-18 16.8-19 45-2.3 63 44 47.3 106.5 74.4 171.4 74.4 64.7 0 127.2-27.1 171.3-74.3 16.8-18 15.9-46.2-2.1-63-8.6-8.1-19.5-12-30.4-12zM777.3 310.8c-11.7 0-23.4 4.6-32.1 13.7-61.7 64.1-144.8 99.3-233.9 99.3-89 0-172.2-35.2-234.2-99.2-17.1-17.7-45.4-18.1-63-1-17.7 17.1-18.1 45.4-1 63.1C292 468.1 397.9 513 511.3 513c113.6 0 219.5-45 298.1-126.6 17.1-17.7 16.6-46-1.2-63.1-8.6-8.4-19.7-12.5-30.9-12.5zM650.1 183.6c-11.9 0-23.8 4.7-32.6 14.1-27.8 29.7-65.5 46-106.2 46-40.3 0-78.9-16.7-106.1-45.9-16.8-18-45-19-63-2.3-18 16.8-19 45-2.3 63 44 47.3 106.5 74.4 171.4 74.4 64.7 0 127.2-27.1 171.3-74.3 16.8-18 15.9-46.2-2.1-63-8.6-8.1-19.5-12-30.4-12z"  horiz-adv-x="1024" />

    
    <glyph glyph-name="miaosha" unicode="&#59254;" d="M901.8 540c-16.1 0-31.8 8.2-40.6 23.1-36 60.8-87.5 111.5-148.9 146.7-22.6 12.9-30.4 41.7-17.5 64.3 12.9 22.6 41.7 30.4 64.3 17.5 75.5-43.2 138.8-105.6 183.1-180.4 13.3-22.4 5.9-51.3-16.5-64.6-7.4-4.5-15.7-6.6-23.9-6.6zM124.2 549.5c-8.5 0-17.2 2.3-25 7.2-22.1 13.8-28.7 42.9-14.9 65 42.8 68.4 102.2 126.1 171.7 167 22.4 13.1 51.3 5.7 64.5-16.8 13.2-22.4 5.7-51.3-16.8-64.5-56.5-33.2-104.7-80.1-139.5-135.7-9-14.4-24.4-22.2-40-22.2zM510.1-5.7c-199.2 0-361.2 162-361.2 361.2s162 361.2 361.2 361.2 361.2-162 361.2-361.2c0-199.1-162-361.2-361.2-361.2z m0 628.2c-147.2 0-267-119.8-267-267s119.8-267 267-267 267 119.8 267 267-119.8 267-267 267zM815.8-29c-11.1 0-22.3 3.9-31.2 11.9L678 77.2c-19.5 17.3-21.3 47.1-4 66.5 17.3 19.5 47 21.3 66.5 4l106.6-94.4c19.5-17.3 21.3-47.1 4-66.5-9.3-10.5-22.3-15.8-35.3-15.8zM207.5-30.4c-13 0-26 5.4-35.3 15.9-17.3 19.5-15.4 49.3 4 66.5L282 145.6c19.5 17.3 49.3 15.4 66.5-4 17.3-19.5 15.4-49.3-4-66.5l-105.7-93.6c-9-8-20.2-11.9-31.3-11.9zM584.5 572.4L342.8 312.9h137.1l-50-174.3 248 262.5-135.7-0.4z"  horiz-adv-x="1024" />

    
    <glyph glyph-name="huizhang" unicode="&#59255;" d="M673.8 381.3H346.4c-17.2 0-33.9 3.5-49.6 10.4l-121.1 53c-45 19.7-74.1 64.2-74.1 113.3V708.5c0 68.2 55.5 123.7 123.7 123.7H797c68.2 0 123.7-55.5 123.7-123.7v-150.2c0-49.4-29.3-93.9-74.6-113.5l-123.2-53.3c-15.6-6.8-32.2-10.2-49.1-10.2zM225.3 742.5c-18.8 0-34-15.3-34-34V558c0-13.5 8-25.7 20.4-31.2l121.1-53c4.4-1.9 8.9-2.9 13.6-2.9h327.4c4.7 0 9.2 0.9 13.5 2.8L810.5 527c12.5 5.4 20.5 17.6 20.5 31.2V708.5c0 18.8-15.3 34-34 34H225.3zM691.8 381.3c-24.8 0-44.8 20.1-44.8 44.8v360c0 24.8 20.1 44.8 44.8 44.8 24.8 0 44.8-20.1 44.8-44.8V426c0-24.7-20.1-44.7-44.8-44.7zM328.1 381.3c-24.8 0-44.8 20.1-44.8 44.8v360c0 24.8 20.1 44.8 44.8 44.8s44.8-20.1 44.8-44.8V426c0-24.7-20.1-44.7-44.8-44.7zM509.2 381.3c-24.8 0-44.8 20.1-44.8 44.8v360c0 24.8 20.1 44.8 44.8 44.8 24.8 0.1 44.8-20 44.8-44.8V426c0-24.7-20-44.7-44.8-44.7zM511.1 264.9m-284.5 0a284.5 284.5 0 1 1 569 0 284.5 284.5 0 1 1-569 0ZM511.1-64.4c-181.6 0-329.3 147.7-329.3 329.3s147.7 329.3 329.3 329.3c181.6 0 329.3-147.7 329.3-329.3S692.7-64.4 511.1-64.4z m0 569c-132.1 0-239.7-107.5-239.7-239.7S379 25.3 511.1 25.3c132.2 0 239.7 107.5 239.7 239.7S643.3 504.6 511.1 504.6zM511.1 142.3c-67.7 0-122.6 54.9-122.6 122.6s54.9 122.6 122.6 122.6 122.6-54.9 122.6-122.6M511.1 97.5c-92.3 0-167.4 75.1-167.4 167.4s75.1 167.4 167.4 167.4c92.3 0 167.5-75.1 167.5-167.4 0-24.8-20.1-44.8-44.8-44.8-24.8 0-44.8 20.1-44.8 44.8 0 42.9-34.9 77.8-77.8 77.8s-77.8-34.9-77.8-77.8 34.9-77.8 77.8-77.8c24.8 0 44.8-20.1 44.8-44.8s-20.1-44.8-44.9-44.8z"  horiz-adv-x="1024" />

    
    <glyph glyph-name="dianshi" unicode="&#59256;" d="M834.3 85.2h-36.9c-24.7 0-44.7 20-44.7 44.7 0 24.7 20 44.7 44.7 44.7h36.9c20.2 0 36.6 16.4 36.6 36.6V645.8c0 20.2-16.4 36.6-36.6 36.6H191.7c-20.2 0-36.6-16.4-36.6-36.6v-434.6c0-20.2 16.4-36.6 36.6-36.6h38c24.7 0 44.7-20 44.7-44.7 0-24.7-20-44.7-44.7-44.7h-38c-69.5 0-126 56.5-126 126V645.8c0 69.5 56.5 126 126 126h642.6c69.5 0 126-56.5 126-126v-434.6c0.1-69.5-56.5-126-126-126zM716.2-4.4c-7.7 0-15.6 2-22.7 6.2l-161 95.2c-12.4 7.9-26.7 7.9-37.8 0.8l-161.1-94.9c-21.3-12.5-48.7-5.4-61.2 15.9s-5.4 48.7 15.8 61.2L448 174.1c39 24.8 91 24.8 131.3-0.9L739 78.8c21.3-12.6 28.3-40 15.7-61.3-8.3-14.1-23.2-21.9-38.5-21.9zM643.3 279.5c-16.1 0-31 8.7-38.9 22.7L499.3 488H279.8c-24.7 0-44.7 20-44.7 44.7s20 44.7 44.7 44.7h245.6c16.1 0 31-8.7 38.9-22.7l76.3-134.9 65.5 132.7c10.9 22.1 37.7 31.3 59.9 20.3 22.2-10.9 31.2-37.7 20.3-59.9L683.4 304.4c-7.3-14.9-22.3-24.4-38.9-24.9h-1.2zM383.4 284.4c-24.7 0-44.7 20-44.7 44.7V532.7c0 24.7 20 44.7 44.7 44.7s44.7-20 44.7-44.7v-203.6c0.1-24.7-20-44.7-44.7-44.7z"  horiz-adv-x="1024" />

    
    <glyph glyph-name="huodong" unicode="&#59257;" d="M150.4-63.7c-24.7 0-44.7 20-44.7 44.7V370.7c0 24.7 20 44.7 44.7 44.7s44.7-20 44.7-44.7V-19c0-24.7-20.1-44.7-44.7-44.7zM483.2 326H150.4c-24.7 0-44.7 20-44.7 44.7V698.3c0 72.8 59.2 132 132 132h245.5c69.9 0 126.8-56.9 126.8-126.8V453c0-70-56.9-127-126.8-127z m-288.1 89.4h288.1c20.6 0 37.4 16.9 37.4 37.6V703.5c0 20.6-16.8 37.4-37.4 37.4H237.7c-23.5 0-42.6-19.1-42.6-42.6v-282.9zM791.1 173.2H543.9c-70.9 0-128.6 57.7-128.6 128.6v69c0 24.7 20 44.7 44.7 44.7s44.7-20 44.7-44.7v-69c0-21.6 17.6-39.1 39.1-39.1H791c21.6 0 39.1 17.6 39.1 39.1V548.9c0 21.6-17.6 39.1-39.1 39.1H565.3c-24.7 0-44.7 20-44.7 44.7s20 44.7 44.7 44.7h225.8c70.9 0 128.6-57.7 128.6-128.6v-247.2c0-70.7-57.7-128.4-128.6-128.4z"  horiz-adv-x="1024" />

    
    <glyph glyph-name="shenfenzheng" unicode="&#59258;" d="M826.6 39.2H197.9c-73.1 0-132.7 59.5-132.7 132.7V599.7c0 73.1 59.5 132.7 132.7 132.7h628.7c73.1 0 132.7-59.5 132.7-132.7v-427.8c-0.1-73.1-59.6-132.7-132.7-132.7zM197.9 642.9c-23.9 0-43.3-19.4-43.3-43.3v-427.8c0-23.9 19.4-43.3 43.3-43.3h628.7c23.9 0 43.3 19.4 43.3 43.3V599.7c0 23.9-19.4 43.3-43.3 43.3H197.9zM330.9 385.7c-33.6 0-60.9 27.3-60.9 60.9s27.3 60.9 60.9 60.9 60.9-27.3 60.9-60.9-27.3-60.9-60.9-60.9zM393.8 264.1H268c-10.6 0-20.6 4.6-27.6 12.6-6.9 8-10.1 18.6-8.6 29.1l5.2 36.4c2.5 17.9 18.1 31.4 36.1 31.4h115.4c18.1 0 33.6-13.5 36.1-31.4l5.2-36.4c1.5-10.5-1.6-21.1-8.6-29.1-6.8-8-16.8-12.6-27.4-12.6zM647.5 420H540c-24.7 0-44.7 20-44.7 44.7s20 44.7 44.7 44.7h107.5c24.7 0 44.7-20 44.7-44.7s-20-44.7-44.7-44.7zM742.6 262.4H540c-24.7 0-44.7 20-44.7 44.7s20 44.7 44.7 44.7h202.6c24.7 0 44.7-20 44.7-44.7s-20-44.7-44.7-44.7z"  horiz-adv-x="1024" />

    
    <glyph glyph-name="remen" unicode="&#59259;" d="M513.8-62.1c-105.5 0-209.8 46.9-278.9 125.3-62.6 71.1-97.9 169.2-96.8 269.2 0.9 87.2 28.1 206.4 101.6 279.2 11.2 11.1 27.4 15.5 42.6 11.5 15.2-3.9 27.3-15.6 31.7-30.7 3.6-12.4 8-24.6 12.5-36.2 8.1 49.2 26.1 101.8 62.1 148.2 65.7 84.5 173.6 127.4 320.9 127.4 18.3 0.3 36.5-12 42.8-30.2 6.2-18 0.3-38-14.8-49.8-11.1-8.8-89.6-74.7-77-166.5 34.6 39 90.6 74.1 176.7 84 24.4 2.9 46.6-14.7 49.5-39.2 1.4-12.3-2.3-24-9.4-33-1-2.5-1.9-5.3-2.7-7.5-1.7-4.7-3.2-8.5-4-10.1-6-12.8-11.2-24.4-13.7-36.5-5-23.9-4.3-51.7 2-82.5 1.2-5.9 2.5-11.7 4-17.5v-0.1c2.1-8.3 4.3-16.6 6.5-24.8 6.1-22.8 12.4-46.3 15.7-71.5 22.4-169-98.4-346-269.3-394.6-33-9.4-67.4-14.1-102-14.1zM260.2 484.1c-21.7-48-32.1-105.4-32.6-152.6-0.9-78.2 26.3-154.4 74.5-209.2 52.4-59.5 131.5-95 211.8-95 26.4 0 52.5 3.6 77.6 10.7 129.9 36.9 221.9 170.1 205.1 296.8-2.6 19.4-7.9 39.2-13.5 60.1-2.4 8.8-4.7 17.6-6.9 26.5-1.7 7-3.4 14.1-4.8 21.1-8.5 41.6-9.3 80.5-2.5 115.6-60.9-31.4-67.3-81.9-67.3-82.5-2-18.5-15.3-33.8-33.2-38.4-18-4.6-37 2.3-47.7 17.5-74.7 105.7-56.5 205.5-14.9 277.8-64.8-13.4-113.7-41.1-146.1-82.5-77-98.5-40.7-248.2-40.3-249.7 6-23.9-8.5-48.2-32.4-54.3-19.3-4.9-38.8 3.5-48.9 19.6-1.5 1.3-3.1 2.7-4.7 4-4.8 4.1-9.4 8-13.4 12.7-7.8 9.4-15.4 19.9-23.2 32.2-12.6 19.8-24.6 42.4-36.6 69.2 0.1 0.1 0 0.3 0 0.4z m72.6-105.9z m515 202.4z m0.1 0s-0.1 0 0 0c-0.1 0 0 0 0 0z m0 0z m0.1 0z m0.1 0z m0 0z"  horiz-adv-x="1024" />

    
    <glyph glyph-name="touyingyi" unicode="&#59260;" d="M914.4 70.9H108.3c-24.7 0-44.8 20.1-44.8 44.8V601.1c0 24.7 20.1 44.8 44.8 44.8h386c24.7 0 44.8-20.1 44.8-44.8 0-59 48.1-107.1 107.3-107.1 59 0 107.1 48 107.1 107.1 0 24.7 20.1 44.8 44.8 44.8h116.1c24.7 0 44.8-20.1 44.8-44.8v-485.5c0-24.7-20.1-44.7-44.8-44.7z m-761.3 89.5h716.5V556.3h-31.7c-20.3-86.9-98.5-151.9-191.5-151.9-93.1 0-171.4 64.9-191.7 151.9H153.1v-395.9zM760.8-34.9c-24.7 0-44.8 20.1-44.8 44.8V115.5c0 24.7 20.1 44.8 44.8 44.8s44.8-20.1 44.8-44.8v-105.7c0-24.7-20.1-44.7-44.8-44.7zM261.8-34.9c-24.7 0-44.8 20.1-44.8 44.8V115.5c0 24.7 20.1 44.8 44.8 44.8 24.7 0 44.8-20.1 44.8-44.8v-105.7c0-24.7-20-44.7-44.8-44.7zM646.4 404.5c-108.6 0-196.9 88.2-196.9 196.7 0 108.4 88.3 196.7 196.9 196.7 108.4 0 196.7-88.2 196.7-196.7-0.1-108.5-88.3-196.7-196.7-196.7z m0 303.7c-59.2 0-107.3-48-107.3-107.1 0-59 48.1-107.1 107.3-107.1 59 0 107.1 48 107.1 107.1-0.1 59.1-48.1 107.1-107.1 107.1zM277 449.3m-45.7 0a45.7 45.7 0 1 1 91.4 0 45.7 45.7 0 1 1-91.4 0Z"  horiz-adv-x="1024" />

    
    <glyph glyph-name="miaobiao" unicode="&#59261;" d="M510.8-64c-215.2 0-390.2 175-390.2 390.2s175 390.2 390.2 390.2S901 541.4 901 326.2 725.9-64 510.8-64z m0 690.9C345 626.9 210.1 492 210.1 326.2S345 25.6 510.8 25.6s300.7 134.9 300.7 300.7-134.9 300.6-300.7 300.6zM510.8 626.9c-24.7 0-44.8 20-44.8 44.8V786.6c0 24.7 20 44.8 44.8 44.8 24.7 0 44.8-20 44.8-44.8v-114.9c-0.1-24.7-20.1-44.8-44.8-44.8zM609.4 741.8H408c-24.7 0-44.8 20-44.8 44.8s20 44.8 44.8 44.8h201.4c24.7 0 44.8-20 44.8-44.8s-20.1-44.8-44.8-44.8zM758.6 529.3c-11.5 0-22.9 4.4-31.7 13.1-17.5 17.5-17.5 45.8 0 63.3l63.8 63.8c17.5 17.5 45.8 17.5 63.3 0s17.5-45.8 0-63.3l-63.8-63.8c-8.7-8.8-20.2-13.1-31.6-13.1zM509.5 262.1c-11.5 0-22.9 4.4-31.7 13.1L331.4 421.7c-17.5 17.5-17.5 45.8 0 63.3s45.8 17.5 63.3 0l146.5-146.5c17.5-17.5 17.5-45.8 0-63.3-8.8-8.8-20.3-13.1-31.7-13.1z"  horiz-adv-x="1024" />

    
    <glyph glyph-name="hongbao" unicode="&#59262;" d="M790.8-61.9H233.2C158.7-61.9 98-1.3 98 73.3V694.1c0 74.6 60.7 135.2 135.2 135.2h557.5c74.6 0 135.2-60.7 135.2-135.2v-620.8c0.1-74.6-60.6-135.2-135.1-135.2zM233.2 740.2c-25.4 0-46.1-20.7-46.1-46.1v-620.8c0-25.4 20.7-46.1 46.1-46.1h557.5c25.4 0 46.1 20.7 46.1 46.1V694.1c0 25.4-20.7 46.1-46.1 46.1H233.2zM513.6 312.6c-30.7 0-61.4 6.8-89.4 20.5L123 480c-22.1 10.8-31.3 37.5-20.5 59.6s37.5 31.3 59.6 20.5l301.1-146.9c31.7-15.5 69.5-15.4 101.1 0.2L861.7 560c22.1 10.8 48.8 1.8 59.7-20.3 10.9-22.1 1.8-48.8-20.3-59.7L603.8 333.5c-28.3-13.9-59.2-20.9-90.2-20.9zM512 560.4m-45.3 0a45.3 45.3 0 1 1 90.6 0 45.3 45.3 0 1 1-90.6 0Z"  horiz-adv-x="1024" />

    
    <glyph glyph-name="wenzhang_2" unicode="&#59263;" d="M801.2-30.5c-21.4 0-42.8 5.7-62.3 17.1l-118.6 69.3c-10.5 6.2-23.6 6.2-34.1 0l-118.6-69.3c-38.6-22.6-84.9-22.8-123.7-0.5s-62 62.3-62 107V598.6c0 24.7 20 44.8 44.8 44.8 24.7 0 44.8-20 44.8-44.8v-505.5c0-17.7 11.9-26.4 17-29.3 5.1-2.9 18.6-8.8 33.9 0.1L541 133.20000000000005c38.4 22.5 86.1 22.5 124.6 0l118.6-69.3c15.2-8.9 28.8-3.1 33.9-0.1 5.1 2.9 17 11.7 17 29.3V674.6c0 18.7-15.2 33.8-33.8 33.8H326.7c-24.7 0-44.8 20-44.8 44.8S302 798 326.7 798h474.5c68 0 123.4-55.4 123.4-123.4v-581.5c0-44.7-23.2-84.8-62-107-19.3-11.1-40.4-16.6-61.4-16.6zM326.7 421h-179c-24.7 0-44.8 20-44.8 44.8V674.6c0 68 55.4 123.4 123.4 123.4h100.3c24.7 0 44.8-20 44.8-44.8s-20-44.8-44.8-44.8H226.3c-18.7 0-33.8-15.2-33.8-33.8v-164.1h134.2c24.7 0 44.8-20 44.8-44.8 0-24.7-20.1-44.7-44.8-44.7zM736 421H467.7c-24.7 0-44.8 20-44.8 44.8 0 24.7 20 44.8 44.8 44.8H736c24.7 0 44.8-20 44.8-44.8 0-24.8-20-44.8-44.8-44.8zM603.2 269.70000000000005H467.7c-24.7 0-44.8 20-44.8 44.8s20 44.8 44.8 44.8h135.6c24.7 0 44.8-20 44.8-44.8s-20.1-44.8-44.9-44.8z"  horiz-adv-x="1024" />

    
    <glyph glyph-name="miaobiao_2" unicode="&#59264;" d="M813.6 44.89999999999998H209c-52.4 0-99.5 32.8-117 81.6-17.4 48.2-26.2 99-26.2 150.9 0 123.8 49.5 238.8 139.5 323.8 89.9 85 207.5 127.9 331.6 121.1 227.5-12.7 411.9-201.2 419.8-429.1 2-57.1-6.7-112.9-25.7-166-17.6-49.2-64.8-82.3-117.4-82.3zM511.2 633.8c-91.6 0-177.8-34.2-244.7-97.4-72-68.1-111.6-160.1-111.6-259.1 0-41.6 7-82.2 20.9-120.7C180.7 143.10000000000002 194 134 209 134h604.7c15 0 28.5 9.3 33.5 23.2 15.2 42.3 22.1 87 20.5 132.8C861.4 472.3 714 623 532 633.2c-7 0.4-14 0.6-20.8 0.6zM912.4 232.79999999999995h-81.5c-24.6 0-44.6 20-44.6 44.6s20 44.6 44.6 44.6h81.5c24.6 0 44.6-20 44.6-44.6s-20-44.6-44.6-44.6zM191.8 232.79999999999995h-81.5c-24.6 0-44.6 20-44.6 44.6s20 44.6 44.6 44.6h81.5c24.6 0 44.6-20 44.6-44.6s-20-44.6-44.6-44.6zM511.3 552.3c-24.6 0-44.6 20-44.6 44.6v81.5c0 24.6 20 44.6 44.6 44.6s44.6-20 44.6-44.6v-81.5c0-24.6-20-44.6-44.6-44.6zM511.3 238.39999999999998c-10 0-20 3.8-27.6 11.4L316.9 416.7c-15.2 15.2-15.2 39.9 0 55.1 15.2 15.2 39.9 15.2 55.1 0L538.9 305c15.2-15.2 15.2-39.9 0-55.1-7.6-7.7-17.6-11.5-27.6-11.5zM511.2 203.70000000000005c-40.6 0-73.7 33.1-73.7 73.7s33.1 73.7 73.7 73.7 73.7-33.1 73.7-73.7-33-73.7-73.7-73.7z m0 89.1c-8.5 0-15.4-6.9-15.4-15.4s6.9-15.4 15.4-15.4 15.4 6.9 15.4 15.4-6.8 15.4-15.4 15.4z"  horiz-adv-x="1024" />

    
    <glyph glyph-name="qianbao_2" unicode="&#59265;" d="M801.5-29H226.4c-69.9 0-126.8 56.9-126.8 126.8V670.7c0 69.9 56.9 126.8 126.8 126.8h575.1c69.9 0 126.8-56.9 126.8-126.8v-91.1c0-24.7-20.1-44.8-44.8-44.8-24.7 0-44.8 20.1-44.8 44.8v91.1c0 20.5-16.7 37.2-37.2 37.2H226.4c-20.5 0-37.2-16.7-37.2-37.2v-572.9c0-20.5 16.7-37.2 37.2-37.2h575.1c20.5 0 37.2 16.7 37.2 37.2V409.5c0 24.7 20.1 44.8 44.8 44.8 24.7 0 44.8-20.1 44.8-44.8v-311.8c0-69.9-56.9-126.7-126.8-126.7zM883.5 373.70000000000005h-476c-69.1 0-125.4 56.2-125.4 125.4s56.2 125.4 125.4 125.4h282.9c46.5 0 84.3-37.8 84.3-84.3v-76.8h108.8c24.7 0 44.8-20.1 44.8-44.8 0-24.9-20.1-44.9-44.8-44.9z m-476 161.1c-19.7 0-35.8-16.1-35.8-35.8 0-19.7 16-35.8 35.8-35.8h277.6v71.5H407.5z"  horiz-adv-x="1024" />

    
    <glyph glyph-name="dingshi" unicode="&#59266;" d="M903.1 539.4c-16.1 0-31.9 8.3-40.7 23.2-36.1 61-87.7 111.8-149.2 147-22.6 13-30.5 41.8-17.5 64.5 13 22.7 41.8 30.5 64.5 17.5 75.6-43.3 139.1-105.8 183.5-180.8 13.3-22.5 5.9-51.4-16.6-64.7-7.5-4.6-15.8-6.7-24-6.7zM123.7 548.9c-8.6 0-17.2 2.3-25 7.2-22.1 13.8-28.8 43-15 65.1 42.9 68.5 102.4 126.4 172.1 167.3 22.5 13.2 51.5 5.7 64.7-16.8 13.2-22.5 5.7-51.4-16.8-64.7-56.6-33.3-105-80.3-139.9-136-9-14.2-24.4-22.1-40.1-22.1zM510.5-7.5c-199.6 0-362 162.4-362 362s162.4 362 362 362 362-162.4 362-362-162.4-362-362-362z m0 629.6C363 622.1 243 502.1 243 354.5S363 87 510.5 87 778 207 778 354.6 658.1 622.1 510.5 622.1zM816.9-30.9c-11.1 0-22.3 3.9-31.3 11.9l-106.8 94.6c-19.5 17.3-21.3 47.2-4 66.7s47.1 21.4 66.7 4l106.8-94.6c19.5-17.3 21.3-47.2 4-66.7-9.4-10.5-22.4-15.9-35.4-15.9zM207.3-32.3c-13.1 0-26 5.4-35.4 15.9-17.3 19.5-15.5 49.4 4.1 66.7l106 93.8c19.5 17.3 49.4 15.5 66.7-4.1 17.3-19.5 15.5-49.4-4.1-66.7l-106-93.8c-9-7.9-20.2-11.8-31.3-11.8zM678.8 307.3H510.5c-26.1 0-47.2 21.1-47.2 47.2s21.1 47.2 47.2 47.2h168.2c26.1 0 47.2-21.1 47.2-47.2 0.1-26.1-21.1-47.2-47.1-47.2zM510.5 307.3c-26.1 0-47.2 21.1-47.2 47.2V526.1c0 26.1 21.1 47.2 47.2 47.2s47.2-21.1 47.2-47.2v-171.6c0.1-26.1-21.1-47.2-47.2-47.2z"  horiz-adv-x="1024" />

    
    <glyph glyph-name="fuzhi" unicode="&#59267;" d="M510.6-34.5H222.7C153.9-34.5 98 21.4 98 90.2V377.3c0 68.7 55.9 124.6 124.6 124.6h287.9c68.7 0 124.7-55.9 124.7-124.6v-287.1c0-68.8-55.9-124.7-124.6-124.7zM222.7 412.4c-19.4 0-35.1-15.7-35.1-35.1v-287.1c0-19.4 15.7-35.1 35.1-35.1h287.9c19.4 0 35.1 15.7 35.1 35.1V377.3c0 19.4-15.8 35.1-35.1 35.1H222.7zM801.5 256.5H590.4c-24.7 0-44.8 20-44.8 44.8v76c0 19.4-15.8 35.1-35.1 35.1h-76.8c-24.7 0-44.8 20-44.8 44.8v211c0 68.7 55.9 124.6 124.7 124.6h287.9c68.7 0 124.6-55.9 124.6-124.6v-287.1c0.1-68.7-55.8-124.6-124.6-124.6zM635.2 346h166.3c19.4 0 35.1 15.7 35.1 35.1V668.2c0 19.4-15.7 35.1-35.1 35.1H513.6c-19.4 0-35.1-15.7-35.1-35.1v-166.3h32.1c68.7 0 124.7-55.9 124.7-124.6V346z"  horiz-adv-x="1024" />

    
    <glyph glyph-name="lanya" unicode="&#59268;" d="M533.4-66.2c-6.5 0-13 1.4-19.1 4.3-15.8 7.4-25.9 23.3-25.8 40.7l0.4 404.1c0 17.4 10.1 33.2 25.9 40.6 15.8 7.4 34.4 5 47.8-6.2l242.3-201.8c10.2-8.5 16.2-21.2 16.2-34.5s-5.9-26-16.2-34.5L562.1-55.8c-8.2-6.9-18.4-10.4-28.7-10.4zM578.6 287l-0.2-212.4L706 180.9 578.6 287zM533.4 337.9c-6.5 0-13 1.4-19.1 4.3-15.8 7.4-25.9 23.3-25.8 40.7l0.4 404.1c0 17.4 10.1 33.2 25.9 40.6 15.8 7.4 34.4 5 47.8-6.2l242.3-201.8C815.1 611 821 598.4 821 585c0-13.3-5.9-26-16.2-34.5L562.1 348.3c-8.2-6.9-18.4-10.4-28.7-10.4z m45.2 353.2l-0.2-212.4L705.9 585 578.6 691.1zM535.9 337.9c-10.1 0-20.3 3.4-28.7 10.4l-289.3 241c-19.1 15.9-21.6 44.2-5.8 63.2 15.9 19 44.2 21.6 63.2 5.8l289.3-241c19.1-15.9 21.6-44.2 5.8-63.2-8.9-10.7-21.7-16.2-34.5-16.2zM246.6 98.9c-12.9 0-25.6 5.5-34.5 16.2-15.9 19.1-13.3 47.4 5.8 63.2l289.3 241c19.1 15.9 47.4 13.3 63.2-5.8 15.9-19.1 13.3-47.4-5.8-63.2l-289.3-241c-8.4-7-18.6-10.4-28.7-10.4z"  horiz-adv-x="1024" />

    
    <glyph glyph-name="caijian" unicode="&#59269;" d="M881.8 54.2H322.6c-70 0-126.9 56.9-126.9 126.9v584c0 25.5 20.7 46.2 46.2 46.2s46.2-20.7 46.2-46.2v-584c0-19 15.5-34.4 34.4-34.4h559.2c25.5 0 46.2-20.7 46.2-46.2 0.1-25.6-20.6-46.3-46.1-46.3zM783.6-44c-25.5 0-46.2 20.7-46.2 46.2V450.1c0 25.5 20.7 46.2 46.2 46.2 25.5 0 46.2-20.7 46.2-46.2v-447.8c0.1-25.6-20.6-46.3-46.2-46.3zM576 601.2H143.8c-25.5 0-46.2 20.7-46.2 46.2s20.7 46.2 46.2 46.2H576c25.5 0 46.2-20.7 46.2-46.2s-20.7-46.2-46.2-46.2zM265.6 77.8c-11.8 0-23.7 4.5-32.7 13.5-18.1 18-18.1 47.3 0 65.4l614 614c18 18.1 47.3 18.1 65.4 0 18.1-18 18.1-47.3 0-65.4l-614-614c-9.1-9-20.9-13.5-32.7-13.5z"  horiz-adv-x="1024" />

    
    <glyph glyph-name="songhuo" unicode="&#59270;" d="M406.8 324.8H250.3c-24.7 0-44.7 20-44.7 44.7 0 24.7 20 44.7 44.7 44.7H362v88.5c0 24.7 20 44.7 44.7 44.7s44.7-20 44.7-44.7v-133.3c0.1-24.6-19.9-44.6-44.6-44.6zM835 85.6H190.9c-69.1 0-125.3 56.2-125.3 125.3v209c0 18.7 6.2 37.3 17.5 52.2L200.2 627c16.3 21.6 42.2 34.4 69.2 34.4h92.7v16.3c0 47.8 38.9 86.7 86.7 86.7H835c69.1 0 125.3-56.2 125.3-125.3v-428.3c0-69-56.2-125.2-125.3-125.2zM270.8 571.9L154.6 418.2l0.6-207.4c0-19.7 16.1-35.8 35.8-35.8h644c19.8 0 35.8 16.1 35.8 35.8V639.2c0 19.7-16.1 35.8-35.8 35.8H451.5v-58.3c0-24.7-20-44.7-44.7-44.7h-136zM695.2 130.3m-87.2 0a87.2 87.2 0 1 1 174.4 0 87.2 87.2 0 1 1-174.4 0ZM695.2-1.6c-72.7 0-131.9 59.2-131.9 131.9 0 72.8 59.2 131.9 131.9 131.9S827.1 203 827.1 130.3c0.1-72.7-59.1-131.9-131.9-131.9z m0 174.4c-23.4 0-42.5-19.1-42.5-42.5s19-42.5 42.5-42.5c23.4 0 42.5 19 42.5 42.5s-19 42.5-42.5 42.5zM330 130.3m-87.2 0a87.2 87.2 0 1 1 174.4 0 87.2 87.2 0 1 1-174.4 0ZM330-1.6c-72.7 0-131.9 59.2-131.9 131.9 0 72.8 59.2 131.9 131.9 131.9s132-59.1 132-131.9c0-72.7-59.2-131.9-132-131.9z m0 174.4c-23.4 0-42.5-19.1-42.5-42.5s19-42.5 42.5-42.5c23.4 0 42.5 19 42.5 42.5s-19.1 42.5-42.5 42.5zM406.8 324.8H250.3c-24.7 0-44.7 20-44.7 44.7 0 24.7 20 44.7 44.7 44.7H362v88.5c0 24.7 20 44.7 44.7 44.7s44.7-20 44.7-44.7v-133.3c0.1-24.6-19.9-44.6-44.6-44.6zM608.1 85.7H417.3c-24.7 0-44.7 20-44.7 44.7s20 44.7 44.7 44.7h190.8c24.7 0 44.7-20 44.7-44.7s-20-44.7-44.7-44.7zM835.1 85.7h-52.6c-24.7 0-44.7 20-44.7 44.7s20 44.7 44.7 44.7h52.6c19.7 0 35.8 16.1 35.8 35.8V639.2c0 19.7-16.1 35.8-35.8 35.8H451.5v-58.4c0-24.7-20-44.7-44.7-44.7H270.7l-116-153.5 0.5-207.4c0-19.7 16.1-35.8 35.8-35.8h51.9c24.7 0 44.7-20 44.7-44.7s-20-44.7-44.7-44.7H191C121.9 85.8 65.7 142 65.7 211V419.8c0 18.9 6.2 37.6 17.6 52.5L200.2 627c15.9 21.4 41.9 34.3 69.2 34.3H362v16.3c0 47.9 38.9 86.8 86.8 86.8h386.3c69.1 0 125.3-56.2 125.3-125.2v-428.3c0-69-56.2-125.2-125.3-125.2zM271.8 573.4c0-0.1 0-0.1 0 0zM695.3-1.6c-72.8 0-132 59.2-132 132s59.2 131.9 132 131.9 132-59.2 132-131.9c0-72.8-59.2-132-132-132z m0 174.5c-23.4 0-42.5-19.1-42.5-42.5s19.1-42.5 42.5-42.5 42.5 19.1 42.5 42.5-19 42.5-42.5 42.5zM330.1-1.6c-72.8 0-132 59.2-132 132s59.2 131.9 132 131.9 132-59.2 132-131.9c-0.1-72.8-59.2-132-132-132z m0 174.5c-23.4 0-42.5-19.1-42.5-42.5s19.1-42.5 42.5-42.5 42.5 19.1 42.5 42.5-19.1 42.5-42.5 42.5z"  horiz-adv-x="1024" />

    
    <glyph glyph-name="erweima_2" unicode="&#59271;" d="M383.1 421.6H186.5c-49.5 0-89.8 40.3-89.8 89.8V708c0 49.5 40.3 89.8 89.8 89.8h196.6c49.5 0 89.8-40.3 89.8-89.8v-196.6c0-49.5-40.3-89.8-89.8-89.8z m0 90.1v-45.1 45.1z m-0.4 196.3l-196.2-0.4 0.4-196.2 195.9 0.4V708zM841 421.6H644.4c-49.5 0-89.8 40.3-89.8 89.8V708c0 49.5 40.3 89.8 89.8 89.8H841c49.5 0 89.8-40.3 89.8-89.8v-196.6c-0.1-49.5-40.3-89.8-89.8-89.8z m0 90.1v-45.1 45.1z m-0.4 196.3l-196.2-0.4 0.4-196.2 195.9 0.4V708zM383.1-32.299999999999955H186.5c-49.5 0-89.8 40.3-89.8 89.8V254.10000000000002c0 49.5 40.3 89.8 89.8 89.8h196.6c49.5 0 89.8-40.3 89.8-89.8v-196.6c0-49.5-40.3-89.8-89.8-89.8z m0 90.2v-45.1 45.1z m-0.4 196.2l-196.2-0.4 0.4-196.2 195.9 0.4V254.10000000000002zM885.7 253.70000000000005h-15.8c-24.9 0-45.1 20.2-45.1 45.1s20.2 45.1 45.1 45.1h15.8c24.9 0 45.1-20.2 45.1-45.1s-20.2-45.1-45.1-45.1zM745.3 253.70000000000005H599.6c-24.9 0-45.1 20.2-45.1 45.1s20.2 45.1 45.1 45.1h145.7c24.9 0 45.1-20.2 45.1-45.1s-20.2-45.1-45.1-45.1zM885.7-32.299999999999955h-15.8c-24.9 0-45.1 20.2-45.1 45.1s20.2 45.1 45.1 45.1h15.8c24.9 0 45.1-20.2 45.1-45.1s-20.2-45.1-45.1-45.1zM745.3-32.299999999999955H599.6c-24.9 0-45.1 20.2-45.1 45.1s20.2 45.1 45.1 45.1h145.7c24.9 0 45.1-20.2 45.1-45.1s-20.2-45.1-45.1-45.1zM615.5 110.70000000000005h-15.8c-24.9 0-45.1 20.2-45.1 45.1s20.2 45.1 45.1 45.1h15.8c24.9 0 45.1-20.2 45.1-45.1s-20.2-45.1-45.1-45.1zM885.7 110.70000000000005H740c-24.9 0-45.1 20.2-45.1 45.1s20.2 45.1 45.1 45.1h145.7c24.9 0 45.1-20.2 45.1-45.1s-20.2-45.1-45.1-45.1z"  horiz-adv-x="1024" />

    
    <glyph glyph-name="fenxiao" unicode="&#59272;" d="M594.1 496.6H442.6c-49.9 0-90.4 40.6-90.4 90.4V738.6c0 49.9 40.6 90.4 90.4 90.4h151.5c49.9 0 90.4-40.6 90.4-90.4V587c0.1-49.8-40.5-90.4-90.4-90.4zM442.6 739.5l-0.9-152.5 152.4-0.9c0.5 0 0.9 0.4 0.9 0.9V738.6l-152.4 0.9zM351.3-66.4H200.8c-49.9 0-90.4 40.6-90.4 90.4V174.5c0 49.9 40.6 90.4 90.4 90.4h150.5c49.9 0 90.4-40.6 90.4-90.4V24c0-49.8-40.6-90.4-90.4-90.4zM200.8 175.4l-0.9-151.3 151.4-0.9c0.5 0 0.9 0.4 0.9 0.9V174.5l-151.4 0.9zM837.6-66.4H687.1c-49.9 0-90.4 40.6-90.4 90.4V174.5c0 49.9 40.6 90.4 90.4 90.4h150.5c49.9 0 90.4-40.6 90.4-90.4V24c0-49.8-40.6-90.4-90.4-90.4zM687.1 175.4l-0.9-151.3 151.3-0.9c0.5 0 0.9 0.4 0.9 0.9V174.5l-151.3 0.9zM518.4 348c-18.5 0-33.6 15-33.6 33.6V541.4c0 18.5 15 33.6 33.6 33.6 18.5 0 33.6-15 33.6-33.6v-159.8c0-18.6-15.1-33.6-33.6-33.6zM762.3 186.6c-18.5 0-33.6 15-33.6 33.6V340.9c0 3.9-3.2 7-7 7h-405c-3.9 0-7-3.2-7-7v-120.7c0-18.5-15-33.6-33.6-33.6s-33.6 15-33.6 33.6V340.9c0 40.9 33.3 74.2 74.2 74.2h405.1c40.9 0 74.2-33.3 74.2-74.2v-120.7c-0.1-18.6-15.1-33.6-33.7-33.6z"  horiz-adv-x="1024" />

    
    <glyph glyph-name="jiandao" unicode="&#59273;" d="M362.7 194.5c-11.5 0-23 4.4-31.7 13.1-17.5 17.5-17.5 45.9 0 63.4l513.6 513.6c17.5 17.5 45.9 17.5 63.4 0s17.5-45.9 0-63.4L394.4 207.6c-8.8-8.7-20.2-13.1-31.7-13.1zM656.2 192.3c-11.5 0-23 4.4-31.7 13.1L108.7 721.2c-17.5 17.5-17.5 45.9 0 63.4s45.9 17.5 63.4 0l515.8-515.8c17.5-17.5 17.5-45.9 0-63.4-8.7-8.8-20.2-13.1-31.7-13.1zM749.1-32.3c-97.3 0-176.5 79.2-176.5 176.5s79.2 176.5 176.5 176.5 176.5-79.2 176.5-176.5-79.2-176.5-176.5-176.5z m0 263.3c-47.8 0-86.8-38.9-86.8-86.8s38.9-86.8 86.8-86.8 86.8 38.9 86.8 86.8-39 86.8-86.8 86.8zM272.1-32.3c-97.3 0-176.5 79.2-176.5 176.5s79.2 176.5 176.5 176.5 176.5-79.2 176.5-176.5-79.2-176.5-176.5-176.5z m0 263.3c-47.8 0-86.8-38.9-86.8-86.8s38.9-86.8 86.8-86.8 86.8 38.9 86.8 86.8-39 86.8-86.8 86.8z"  horiz-adv-x="1024" />

    
    <glyph glyph-name="shezhi_3" unicode="&#59274;" d="M531.5-64.79999999999995h-34.8c-55.8 0-104.1 41.6-112.4 96.8l-1.6 11.1c-1.2 7.9-7 15-15.5 18.9-20.1 9.3-39.6 20.6-57.8 33.6-7.7 5.5-16.8 7-24.4 4l-10.6-4.2c-52-20.4-112.1 0.5-140 48.9L117 174.5c-27.9 48.3-16 111 27.7 145.7l8.8 7c6.3 5 9.8 12.6 9 19.8-1.3 12.2-2 24.6-2 36.7 0 12.1 0.7 24.4 2 36.7 0.8 7.2-2.7 14.8-9 19.8l-8.8 7C101 481.9 89.1 544.5 117 592.8l17.4 30.1c27.9 48.3 88.1 69.4 140 48.9l10.7-4.2c7.5-3 16.6-1.5 24.3 4.1 18.2 13.1 37.7 24.3 57.8 33.6 8.5 3.9 14.3 11 15.5 19l1.6 11c8.3 55.2 56.6 96.8 112.4 96.8h34.8c55.8 0 104.1-41.6 112.4-96.8l1.6-11.1c1.2-7.9 7-15 15.5-18.9 20.1-9.3 39.6-20.6 57.8-33.6 7.7-5.5 16.8-7 24.3-4l10.6 4.2c52 20.4 112.2-0.6 140.1-48.9l17.4-30.1c27.9-48.3 16-111-27.7-145.7l-8.8-7c-6.3-5-9.7-12.6-9-19.8 1.3-12.2 2-24.6 2-36.7 0-12.1-0.7-24.4-2-36.7-0.8-7.2 2.7-14.8 9-19.8l8.8-7c43.7-34.8 55.6-97.4 27.7-145.7l-17.4-30.1c-27.9-48.3-88.1-69.3-140-48.9l-10.6 4.2c-7.6 3-16.7 1.5-24.4-4-18.2-13-37.7-24.3-57.8-33.6-8.5-3.9-14.3-11-15.5-19l-1.6-11c-8.3-55.2-56.6-96.9-112.4-96.9zM293.2 190.89999999999998c23.9 0 47.8-7.6 68.4-22.3 13.6-9.7 28.1-18.2 43.1-25.1 36.1-16.6 61-49.2 66.7-87.2l1.6-11.1c1.8-11.8 11.7-20.3 23.6-20.3h34.8c11.9 0 21.9 8.6 23.6 20.4l1.6 11c5.7 38 30.6 70.6 66.7 87.2 15 6.9 29.5 15.3 43.1 25.1 32.5 23.3 73.4 28.7 109.4 14.5l10.6-4.2c11-4.3 23.6 0.1 29.5 10.3l17.4 30.1c5.9 10.2 3.4 23.4-5.8 30.7l-8.8 7c-30.6 24.3-46.4 61.5-42.3 99.5 1 9 1.5 18.2 1.5 27.1s-0.5 18.1-1.5 27.2c-4.1 38 11.8 75.2 42.3 99.5l8.8 7c9.2 7.3 11.7 20.5 5.8 30.7l-17.4 30.1c-5.9 10.1-18.5 14.6-29.5 10.3l-10.6-4.2c-36-14.2-76.9-8.8-109.4 14.5-13.6 9.7-28.1 18.2-43.1 25.1-36.1 16.6-61 49.2-66.7 87.2l-1.6 11.1c-1.8 11.8-11.7 20.3-23.6 20.3h-34.8c-11.9 0-21.9-8.6-23.6-20.4l-1.6-11c-5.7-38-30.6-70.6-66.7-87.2-15-6.9-29.5-15.3-43.1-25.1-32.5-23.3-73.4-28.7-109.4-14.5l-10.6 4.2c-10.9 4.3-23.6-0.1-29.5-10.3L194.7 548c-5.9-10.2-3.4-23.4 5.8-30.7l8.8-7c30.6-24.3 46.4-61.5 42.3-99.5-1-9-1.5-18.2-1.5-27.1s0.5-18.1 1.5-27.2c4.1-38-11.8-75.2-42.3-99.5l-8.8-7c-9.2-7.3-11.7-20.5-5.8-30.7l17.4-30.1c5.9-10.2 18.5-14.6 29.5-10.3l10.6 4.2c13.2 5.3 27.1 7.8 41 7.8zM514.1 220.79999999999995C423.6 220.79999999999995 350 294.5 350 385c0 90.5 73.6 164.1 164.1 164.1S678.2 475.5 678.2 385s-73.6-164.2-164.1-164.2z m0 238.6c-41 0-74.4-33.4-74.4-74.4 0-41 33.4-74.4 74.4-74.4s74.4 33.4 74.4 74.4c0.1 41-33.3 74.4-74.4 74.4z"  horiz-adv-x="1024" />

    
    <glyph glyph-name="guanli" unicode="&#59275;" d="M512-64.4c-23.2 0-46.5 6-67.2 17.9L173.5 110.2c-41.4 23.9-67.2 68.5-67.2 116.3V539.9c0 47.8 25.7 92.4 67.2 116.3L444.8 812.9c41.4 23.9 92.9 23.9 134.3 0l271.4-156.7c41.4-23.9 67.2-68.5 67.2-116.3v-313.4c0-47.8-25.7-92.4-67.2-116.3L579.2-46.5c-20.7-11.9-44-17.9-67.2-17.9z m0 805.6c-7.7 0-15.4-2-22.3-6L218.3 578.5c-13.8-7.9-22.3-22.7-22.3-38.6v-313.4c0-15.9 8.5-30.7 22.3-38.6l271.4-156.7c13.8-7.9 30.8-7.9 44.6 0l271.4 156.7c13.8 7.9 22.3 22.7 22.3 38.6V539.9c0 15.9-8.5 30.7-22.3 38.6L534.3 735.2c-6.9 4-14.6 6-22.3 6zM514 337c-7.8 0-15.5 2-22.4 6L270.9 470.6c-21.5 12.4-28.8 39.8-16.4 61.3 12.4 21.5 39.8 28.8 61.3 16.4l198.1-114.5 189.7 110.9c21.4 12.5 48.9 5.3 61.4-16.1 12.5-21.4 5.3-48.9-16.1-61.4l-212.2-124c-7-4.1-14.9-6.2-22.7-6.2zM512 90.2c-24.8 0-44.9 20.1-44.9 44.9V381.9c0 24.8 20.1 44.9 44.9 44.9s44.9-20.1 44.9-44.9V135c0-24.7-20.1-44.8-44.9-44.8z"  horiz-adv-x="1024" />

    
    <glyph glyph-name="shouye_4" unicode="&#59276;" d="M754.4-28.600000000000023H265.1c-46.5 0-84.4 37.9-84.4 84.4V506.1c0 24.6 20 44.6 44.6 44.6s44.6-20 44.6-44.6v-445.4h479.6V506.1c0 24.6 20 44.6 44.6 44.6s44.6-20 44.6-44.6v-450.2c0.1-46.6-37.8-84.5-84.3-84.5zM911.8 360.5c-9.2 0-18.5 2.9-26.5 8.8-9.8 7.3-246.5 212.7-375.5 324.7L138 373.5c-18.7-16.1-46.8-14-62.9 4.7s-14 46.9 4.7 62.9L480.9 787c16.8 14.5 41.7 14.4 58.4-0.1 153.7-133.5 387.2-336 400.4-346.6 19-15.3 22.5-43.1 7.5-62.3-8.9-11.5-22.1-17.5-35.4-17.5zM610.3-28.600000000000023H409.2c-24.6 0-44.6 20-44.6 44.6V187.39999999999998c0 73.2 59.5 132.8 132.7 132.8h24.9c73.2 0 132.7-59.6 132.7-132.8V16c0-24.6-20-44.6-44.6-44.6z m-156.5 89.3h111.9V187.39999999999998c0 24-19.5 43.5-43.5 43.5h-24.9c-24 0-43.5-19.5-43.5-43.5v-126.7z"  horiz-adv-x="1024" />

    
    <glyph glyph-name="dianhua_2" unicode="&#59278;" d="M808.2-22.700000000000045H217.6c-39.4 0-75.7 18-99.4 49.5-23.8 31.4-31.3 71.2-20.6 109.1L191.7 468c15.1 53.4 64.4 90.7 119.9 90.7h402.6c55.5 0 104.8-37.3 119.9-90.7l94.1-332c10.7-37.9 3.3-77.7-20.5-109.1-23.8-31.5-60.1-49.6-99.5-49.6zM311.6 469.4c-15.7 0-29.7-10.6-34-25.7l-94.1-332.1c-3-10.8-0.9-22 5.8-30.9s17-14 28.2-14h590.6c11.2 0 21.5 5.1 28.2 14 6.7 8.9 8.9 20.2 5.8 30.9L748 443.7c-4.3 15.1-18.3 25.7-34 25.7H311.6zM512.9 125.60000000000002c-79.4 0-144 64.6-144 144s64.6 144 144 144 144-64.6 144-144-64.6-144-144-144z m0 198.7c-30.2 0-54.7-24.5-54.7-54.7s24.5-54.7 54.7-54.7c30.2 0 54.7 24.5 54.7 54.7s-24.6 54.7-54.7 54.7zM638.1 469.4c-24.7 0-44.6 20-44.6 44.6v90.7c0 24.7 20 44.6 44.6 44.6s44.6-20 44.6-44.6V514c0-24.7-20-44.6-44.6-44.6zM387.7 469.4c-24.7 0-44.6 20-44.6 44.6v90.7c0 24.7 20 44.6 44.6 44.6 24.7 0 44.6-20 44.6-44.6V514c0-24.7-19.9-44.6-44.6-44.6zM914.7 546.8c-24.7 0-44.6 20-44.6 44.6 0 63.2-59.4 114.6-132.5 114.6H288.2c-73.1 0-132.5-51.4-132.5-114.6 0-24.7-20-44.6-44.6-44.6s-44.6 20-44.6 44.6c0 112.4 99.5 203.9 221.8 203.9h449.4c122.3 0 221.8-91.5 221.8-203.9-0.2-24.6-20.2-44.6-44.8-44.6z"  horiz-adv-x="1024" />

    
    <glyph glyph-name="huiyuan_2" unicode="&#59279;" d="M797.2 110.89999999999998H231c-20.5 0-38.5 13.9-43.7 33.8L64.7 618.8c-4.7 18.1 2.3 37.2 17.5 48 15.2 10.9 35.5 11.2 51.1 0.9l179.8-119.1 166.5 230.6c8.5 11.7 22.1 18.7 36.6 18.7h0.2c14.6-0.1 28.2-7.2 36.6-19.1l162.6-230L895 667.7c15.6 10.3 35.9 10 51.1-0.9 15.2-10.8 22.1-29.9 17.5-48L840.9 144.60000000000002c-5.2-19.8-23.1-33.7-43.7-33.7zM265.9 201h496.4l84.4 326.6-117.9-78.1c-20.3-13.5-47.6-8.4-61.7 11.5L515.7 675.1 360.9 460.6c-14.2-19.6-41.3-24.6-61.5-11.2l-117.9 78.1L265.9 201zM786.8-32.200000000000045H242.9c-24.9 0-45.1 20.2-45.1 45.1S218 58 242.9 58h543.9c24.9 0 45.1-20.2 45.1-45.1s-20.2-45.1-45.1-45.1z"  horiz-adv-x="1024" />

    
    <glyph glyph-name="qifei" unicode="&#59280;" d="M280.1 86.7c-10.8 0-21.7 1.4-32.4 4.3-32.1 8.6-59 29.2-75.6 58L71.2 323.7c-9.2 16-7.7 36 3.9 50.3 11.5 14.4 30.7 20.2 48.3 14.6L258.2 346l70.2 54.7-239.5 128c-14.3 7.7-23.4 22.5-23.6 38.7-0.3 16.2 8.3 31.3 22.4 39.5l97 55.8c10.1 5.8 22.1 7.5 33.4 4.6L558.3 580l62.2 48.4c69.4 54.3 162.8 65.7 243.5 29.7 42.2-18.8 74.6-53.9 88.9-96.3 4.3-12.8 6.5-24.5 6.5-34.8 0-41.2-22.2-79.7-57.8-100.5l-559.4-323c-19.3-11.1-40.6-16.8-62.1-16.8z m-73.9 182l43.3-75c4.7-8.1 12.3-13.9 21.3-16.4 9-2.5 18.5-1.2 26.6 3.5l559.3 323c8.1 4.7 13 13.1 13.2 22.5-0.1 0.7-0.5 2.9-1.8 6.7-6.3 18.8-21.1 34.6-40.6 43.2-50.4 22.5-108.7 15.4-152.1-18.5L595.9 496a44.49 44.49 0 0 0-38.6-8l-343.9 88.3-11.4-6.6 229.1-122.4c13.3-7.1 22.2-20.5 23.5-35.6s-5.1-29.8-17-39.1l-143-111.5c-11.6-9.1-27-11.8-41-7.4l-47.4 15z"  horiz-adv-x="1024" />

    
    <glyph glyph-name="shouye_5" unicode="&#59281;" d="M510.6-62.700000000000045c-181.3 0-296.7 41.5-301.5 43.3-17.6 6.5-29.4 23.2-29.4 42V538c0 24.7 20 44.8 44.8 44.8s44.8-20 44.8-44.8v-482.1c42.3-11.2 127.8-29.1 241.4-29.1 114.7 0 201.1 18 243.8 29.2V538c0 24.7 20 44.8 44.8 44.8s44.8-20 44.8-44.8v-515.4c0-18.9-11.9-35.8-29.7-42.1-5-1.8-122.7-43.2-303.8-43.2zM883.3 421c-9.2 0-18.5 2.9-26.5 8.9-9.8 7.4-225.4 194.7-344.8 298.6L172 435.3c-18.7-16.1-47-14-63.1 4.7s-14.1 47 4.7 63.1L482.8 821.5c16.9 14.5 41.8 14.5 58.6-0.1 141.5-123.1 356.7-310 369.7-320.4 19-15.3 22.6-43.2 7.6-62.5-8.8-11.4-22.1-17.5-35.4-17.5zM523.2 180.79999999999995h-22.6c-74.5 0-135 60.6-135 135v22.6c0 74.5 60.6 135 135 135h22.6c74.5 0 135-60.6 135-135v-22.6c0-74.4-60.6-135-135-135z m-22.7 203.3c-25.1 0-45.5-20.4-45.5-45.5V316c0-25.1 20.4-45.5 45.5-45.5h22.6c25.1 0 45.5 20.4 45.5 45.5v22.6c0 25.1-20.4 45.5-45.5 45.5h-22.6z"  horiz-adv-x="1024" />

    
    <glyph glyph-name="erweima" unicode="&#59282;" d="M519.6 287.8h-332c-49.3 0-89.3 40.1-89.3 89.3V709.2c0 49.3 40.1 89.3 89.3 89.3h332.1c49.3 0 89.3-40.1 89.3-89.3v-332.1c0-49.2-40.1-89.3-89.4-89.3z m0 89.8v-44.9 44.9z m-0.3 331.6l-331.7-0.4 0.4-331.7 331.3 0.4V709.2zM838.7-23.9H766c-49.3 0-89.3 40.1-89.3 89.3v72.7c0 49.3 40.1 89.3 89.3 89.3h72.7c49.3 0 89.3-40.1 89.3-89.3v-72.7c0-49.2-40.1-89.3-89.3-89.3z m0 89.7V21v44.8z m-0.4 72.4l-72.4-0.4 0.4-72.4 72 0.4v72.4zM158.8-23.9h-15.7c-24.8 0-44.9 20.1-44.9 44.9s20.1 44.9 44.9 44.9h15.7c24.8 0 44.9-20.1 44.9-44.9s-20.2-44.9-44.9-44.9zM564.1-23.9h-282c-24.8 0-44.9 20.1-44.9 44.9s20.1 44.9 44.9 44.9h282c24.8 0 44.9-20.1 44.9-44.9s-20.1-44.9-44.9-44.9zM564.1 137.8h-15.7c-24.8 0-44.9 20.1-44.9 44.9s20.1 44.9 44.9 44.9h15.7c24.8 0 44.9-20.1 44.9-44.9s-20.1-44.9-44.9-44.9zM425.1 137.8h-282c-24.8 0-44.9 20.1-44.9 44.9s20.1 44.9 44.9 44.9h282c24.8 0 44.9-20.1 44.9-44.9s-20.1-44.9-44.9-44.9zM883.1 287.8c-24.8 0-44.9 20.1-44.9 44.9v15.7c0 24.8 20.1 44.9 44.9 44.9 24.8 0 44.9-20.1 44.9-44.9v-15.7c0-24.8-20.1-44.9-44.9-44.9zM883.1 426.8c-24.8 0-44.9 20.1-44.9 44.9v282c0 24.8 20.1 44.9 44.9 44.9 24.8 0 44.9-20.1 44.9-44.9v-282c0-24.8-20.1-44.9-44.9-44.9zM721.4 693.2c-24.8 0-44.9 20.1-44.9 44.9v15.7c0 24.8 20.1 44.9 44.9 44.9 24.8 0 44.9-20.1 44.9-44.9V738c0-24.7-20.1-44.8-44.9-44.8zM721.4 287.8c-24.8 0-44.9 20.1-44.9 44.9v282c0 24.8 20.1 44.9 44.9 44.9 24.8 0 44.9-20.1 44.9-44.9v-282c0-24.8-20.1-44.9-44.9-44.9z"  horiz-adv-x="1024" />

    
    <glyph glyph-name="daohang_2" unicode="&#59283;" d="M641.2-62.5c-20.3 0-40.2 7.1-56.2 20.6L357.8 149c-18.9 15.9-21.4 44.1-5.5 63 15.9 18.9 44.1 21.3 63 5.5l224.9-189 198.6 711.4L191.1 406l105-88.2c18.9-15.9 21.4-44.1 5.5-63-15.9-18.9-44.1-21.3-63-5.5l-107.2 90.1c-22.5 18.9-33.9 47.6-30.7 76.7 3.3 29.2 20.8 54.6 46.9 68l656 338.1c31.1 16 67.3 12.3 94.4-9.8 27.2-22.1 38.2-56.8 28.8-90.5L725.6 1.5c-8-28.8-29.9-51.2-58.4-60.1-8.6-2.6-17.4-3.9-26-3.9zM376.3-62.5c-24.7 0-44.7 20-44.7 44.7v205c0 10.5 3.7 20.6 10.4 28.6l492.8 591c15.8 19 44 21.5 63 5.7s21.5-44 5.7-63L421.1 171v-188.7c0-24.7-20.1-44.8-44.8-44.8z"  horiz-adv-x="1024" />

    
    <glyph glyph-name="weizhi_2" unicode="&#59284;" d="M509.1 83.89999999999998c-9.3 0-18.6 2.9-26.5 8.7-11.7 8.5-285.3 211.7-285.3 427.7 0 171.9 139.9 311.8 311.8 311.8s311.8-139.9 311.8-311.8c0-216-273.6-419.2-285.3-427.7-7.9-5.8-17.2-8.7-26.5-8.7z m0 658.6c-122.5 0-222.2-99.7-222.2-222.2 0-126.3 142.1-269 222.1-334.7 80.1 65.8 222.2 208.8 222.2 334.7 0 122.5-99.6 222.2-222.1 222.2zM509.1 368.70000000000005c-83.6 0-151.6 68-151.6 151.6s68 151.6 151.6 151.6 151.6-68 151.6-151.6-68-151.6-151.6-151.6z m0 213.6c-34.2 0-62-27.8-62-62s27.8-62 62-62 62 27.8 62 62-27.8 62-62 62zM811.2-64.20000000000005H211.5c-43 0-83.2 21.2-107.5 56.7-24.3 35.5-29.5 80.6-14 120.7l3.2 6.6L130 182c23.5 39.7 66.8 64.3 112.9 64.3 24.8 0 44.8-20.1 44.8-44.8 0-24.8-20.1-44.8-44.8-44.8-14.6 0-28.4-7.8-35.8-20.4l-34.6-58.4c-3.6-11.9-1.8-24.4 5.4-34.8 7.7-11.2 19.9-17.7 33.5-17.7H811c13.6 0 25.8 6.4 33.5 17.7 7.1 10.4 9 22.9 5.4 34.8l-34.6 58.4c-7.5 12.6-21.2 20.4-35.8 20.4-24.8 0-44.8 20.1-44.8 44.8 0 24.8 20.1 44.8 44.8 44.8 46.1 0 89.4-24.7 112.9-64.4l40.1-68.8c15.5-40.1 10.3-85.2-14-120.7-24.2-35.4-64.3-56.6-107.3-56.6z"  horiz-adv-x="1024" />

    
    <glyph glyph-name="quanzi" unicode="&#59285;" d="M512.9-64.2c-247.7 0-449.1 201.5-449.1 449.1S265.2 834.1 512.9 834.1 962 632.6 962 384.9 760.5-64.2 512.9-64.2z m0 808.4c-198.1 0-359.3-161.2-359.3-359.3s161.2-359.3 359.3-359.3 359.3 161.2 359.3 359.3S711 744.2 512.9 744.2zM378.9 169.4c-21.1 0-41.9 8.3-57.4 23.8-23 23-30 57.4-17.9 87.6l70.9 176.7c12 29.9 36.1 54 65.9 65.9l176.4 70.8c30.2 12.2 64.7 5.1 87.7-18s30-57.5 17.9-87.7L650.8 311c-12.1-29.9-36.1-53.9-66-65.8l-175.8-70c-9.7-3.9-20-5.8-30.1-5.8z m252.5 334l-157.6-63.3c-7.3-2.9-13.1-8.8-16-16l-63.4-158 156.9 62.6c7.3 2.9 13.1 8.7 16 16l64.1 158.7zM568.1 287h0.2-0.2z"  horiz-adv-x="1024" />

    
    <glyph glyph-name="qifei_2" unicode="&#59286;" d="M280.1 167.79999999999995c-10.8 0-21.8 1.4-32.5 4.3-32.2 8.6-59.2 29.3-75.8 58.2L70.6 405.5c-9.3 16-7.7 36.1 3.9 50.5 11.6 14.4 30.8 20.3 48.5 14.7L258.2 428l70.4 54.9L88.3 611.2c-14.4 7.7-23.4 22.5-23.7 38.8-0.3 16.3 8.3 31.4 22.5 39.6l97.3 56c10.1 5.9 22.2 7.5 33.5 4.6l341.3-87.6 62.4 48.5c69.6 54.4 163.2 65.9 244.2 29.8 42.3-18.9 74.8-54.1 89.2-96.6 4.3-12.8 6.5-24.6 6.5-34.9 0-41.4-22.2-80-58-100.8l-561.1-324c-19.3-11.1-40.7-16.8-62.3-16.8zM206 350.29999999999995l43.4-75.2c4.7-8.2 12.3-14 21.4-16.4 9.1-2.4 18.6-1.2 26.7 3.5l561 323.9c8.1 4.7 13.1 13.2 13.3 22.6-0.1 0.7-0.5 2.9-1.8 6.7-6.4 18.9-21.2 34.7-40.7 43.4-50.6 22.6-109 15.4-152.5-18.6L597 578.1c-10.9-8.5-25.3-11.5-38.7-8l-344.9 88.5L202 652l229.7-122.8c13.4-7.1 22.2-20.6 23.5-35.7 1.3-15.1-5.1-29.9-17.1-39.2L294.7 342.70000000000005c-11.7-9.1-27.1-11.8-41.1-7.4l-47.6 15zM320 5.7000000000000455c-15.4 0-30.5 8-38.8 22.3-12.5 21.4-5.2 48.8 16.2 61.3l592.5 344.8c15.5 9 34.9 8 49.4-2.8 14.4-10.7 21-29 16.8-46.5l-31.7-130.9c-5.8-24.1-30.1-38.8-54.1-33-24.1 5.8-38.9 30.1-33 54.1l7 28.7-501.8-291.9c-7.1-4.1-14.9-6.1-22.5-6.1z"  horiz-adv-x="1024" />

    
    <glyph glyph-name="jifen_2" unicode="&#59287;" d="M297 377.5c-3.3 0-6.6 0.4-9.9 1.1-132.8 30.1-218.6 110-218.6 203.6 0 120.9 144 215.5 327.9 215.5 135.9 0 255.4-52.6 304.5-134.1 12.7-21 5.9-48.3-15.1-61-21.1-12.7-48.3-5.9-61 15.1-32.3 53.6-126.3 91.1-228.4 91.1-140.9 0-239-66.8-239-126.7 0-48.9 61.4-97 149.3-116.9 23.9-5.4 38.9-29.2 33.5-53.2-4.5-20.5-22.9-34.5-43.2-34.5zM297.1 176.70000000000005c-3.3 0-6.6 0.4-9.9 1.1-132.8 30.1-218.6 110-218.6 203.6V582.2c0 24.5 19.9 44.4 44.4 44.4s44.4-19.9 44.4-44.4v-200.8c0-48.9 61.4-97 149.3-116.9 23.9-5.4 38.9-29.2 33.5-53.2-4.5-20.6-22.9-34.6-43.1-34.6zM326.4-29.600000000000023c-2.2 0-4.5 0.2-6.8 0.5-147.8 22.7-251 109-251 209.7V381.4c0 24.5 19.9 44.4 44.4 44.4s44.4-19.9 44.4-44.4v-200.8c0-54.1 75.5-106.5 175.6-121.9 24.3-3.7 40.9-26.4 37.2-50.7-3.3-21.9-22.2-37.6-43.8-37.6zM667.4 146.60000000000002c-162.6 0-290 87.5-290 199.1 0 111.7 127.4 199.1 290 199.1s290-87.5 290-199.1-127.4-199.1-290-199.1z m0 309.4c-118.5 0-201.1-58.1-201.1-110.3 0-52.1 82.6-110.2 201.1-110.2s201.1 58.1 201.1 110.2c0 52.2-82.6 110.3-201.1 110.3zM667.4-34.89999999999998c-162.6 0-290 87.5-290 199.1V345.70000000000005c0 24.5 19.9 44.4 44.4 44.4s44.4-19.9 44.4-44.4v-181.5c0-52.1 82.6-110.2 201.1-110.2s201.1 58.1 201.1 110.2V345.70000000000005c0 24.5 19.9 44.4 44.4 44.4s44.4-19.9 44.4-44.4v-181.5c0.2-111.6-127.2-199.1-289.8-199.1z"  horiz-adv-x="1024" />

    
    <glyph glyph-name="feiji" unicode="&#59288;" d="M399.4-30.4c-3.1 0-6.2 0.3-9.3 1-14.9 3.1-27.1 13.6-32.6 27.7l-65 167.3-167.3 65c-14.2 5.5-24.6 17.8-27.7 32.6-3.1 14.9 1.5 30.3 12.2 41.1l80.5 80.5c12.5 12.5 31.2 16.5 47.7 10.3l69.7-26.4 55.4 64.9-181.6 60.8c-14.4 4.8-25.4 16.6-29.2 31.3-3.8 14.7 0 30.3 10.3 41.6l77.6 85.2c9.6 10.5 23.4 15.9 37.7 14.5l261.7-25.8 61.9 76.6 1.5 1.8c3.2 3.5 5.9 6.5 8.7 9.4 62.2 62.2 196.5 103.2 274.1 28.8 29.1-27.9 43.8-67.1 42.4-113.5-1.8-63.4-34-132.3-80-171.5L769 408.6l25.3-258.1c1.4-14.1-4-28.1-14.5-37.7l-85.3-77.4c-11.3-10.2-26.9-14-41.6-10.2-14.7 3.8-26.4 14.8-31.3 29.2l-59.7 178.5-64.9-55.4 25-66.5c6.3-16.5 2.2-35.2-10.3-47.7l-80.5-80.5c-8.5-8.6-20-13.2-31.8-13.2zM222 289.5l121.6-47.4c11.6-4.6 20.8-13.8 25.4-25.4L416.3 95l11.3 11.3-26.1 68.9c-6.7 17.7-1.6 37.8 12.9 50.1l139.7 119.1c11.4 9.7 26.8 13.1 41.2 9.1 14.4-4 25.9-14.9 30.6-29.1l59-176.3 17.6 16-25.4 259.7c-1.5 15 4.7 29.8 16.4 39.3l97 78.7c25.7 21.9 46.5 67.4 47.6 105 0.4 14.1-1.8 33.6-14.8 46-35.2 33.7-114.2 6.6-148.3-27.5-1.7-1.7-3.3-3.5-5-5.4l-76-94.1c-9.5-11.8-24.3-18.1-39.4-16.5l-263.4 25.9-15.9-17.5 179.3-60.1c14.2-4.7 25-16.2 29-30.6 4-14.4 0.6-29.8-9.1-41.2l-119-139.5c-12.3-14.5-32.4-19.6-50.1-12.9l-72.1 27.3-11.3-11.2z"  horiz-adv-x="1024" />

    
    <glyph glyph-name="zihangche" unicode="&#59289;" d="M249.2-2.5c-104.2 0-188.9 84.8-188.9 189 0 68.5 37.2 131.7 97 165.1 21.6 12.1 49.1 4.3 61.2-17.4 12.1-21.7 4.3-49.1-17.4-61.2-31.4-17.5-50.9-50.7-50.9-86.6 0-54.6 44.4-99 99-99 25.4 0 49.6 9.6 68 27.1 18 17.1 46.5 16.3 63.6-1.7s16.3-46.5-1.7-63.6c-35.3-33.3-81.4-51.7-129.9-51.7zM732.6-2.5c-125.1 0-226.8 101.7-226.8 226.8 0 38.4 9.8 76.4 28.3 109.8 12 21.7 39.4 29.6 61.1 17.5 21.7-12 29.6-39.4 17.5-61.1-11.1-20.1-17-43-17-66.2 0-75.5 61.4-136.9 136.9-136.9s136.9 61.4 136.9 136.9c0 63.3-42.9 118-104.3 133-24.1 5.9-38.9 30.2-33 54.3 5.9 24.1 30.1 38.9 54.3 33 101.8-24.8 172.9-115.4 172.9-220.4 0-124.9-101.7-226.7-226.8-226.7zM732.6 182.4c-17.2 0-33.6 9.9-41.1 26.7l-208.7 469H374.6c-24.8 0-45 20.1-45 45s20.1 45 45 45H512c17.8 0 33.9-10.4 41.1-26.7l220.7-495.7c10.1-22.7-0.1-49.3-22.8-59.4-6-2.7-12.2-3.9-18.4-3.9zM348.1 182.4c-16.9 0-33.1 9.5-40.7 25.8L173.1 493.7c-10.6 22.5-0.9 49.3 21.6 59.8s49.3 0.9 59.8-21.6l134.3-285.6c10.6-22.5 0.9-49.3-21.6-59.8-6.2-2.8-12.7-4.1-19.1-4.1zM294.8 467.9h-143c-24.8 0-45 20.1-45 45s20.1 45 45 45h143c24.8 0 45-20.1 45-45s-20.1-45-45-45zM301.2 300.1c-15.4 0-30.4 7.9-38.8 22.2-12.6 21.4-5.4 49 16 61.5l274 160.9c21.4 12.6 48.9 5.4 61.5-16 12.6-21.4 5.4-49-16-61.5l-274-160.9c-7.1-4.2-15-6.2-22.7-6.2z"  horiz-adv-x="1024" />

    
    <glyph glyph-name="qiche1" unicode="&#59290;" d="M240.6 1.7c-95.9 0-173.9 78-173.9 173.9s78 173.9 173.9 173.9 173.9-78 173.9-173.9-78-173.9-173.9-173.9z m0 258c-46.4 0-84.2-37.8-84.2-84.2 0-46.4 37.8-84.2 84.2-84.2 46.4 0 84.2 37.8 84.2 84.2-0.1 46.5-37.8 84.2-84.2 84.2zM790.3 1.7c-95.9 0-173.9 78-173.9 173.9s78 173.9 173.9 173.9 173.9-78 173.9-173.9-78-173.9-173.9-173.9z m0 258c-46.4 0-84.2-37.8-84.2-84.2 0-46.4 37.8-84.2 84.2-84.2 46.4 0 84.2 37.8 84.2 84.2-0.1 46.5-37.8 84.2-84.2 84.2zM603.3 476.3c-78.3 0-142 63.7-142 142s63.7 142 142 142 142-63.7 142-142-63.7-142-142-142z m0 194.3c-28.8 0-52.2-23.4-52.2-52.2 0-28.8 23.4-52.2 52.2-52.2 28.8 0 52.2 23.4 52.2 52.2 0 28.7-23.4 52.2-52.2 52.2zM501.8 130.7c-24.8 0-44.9 20.1-44.9 44.9 0 84.2-49.5 161.4-126 196.6-39.4 18.1-59.7 62.6-47.2 103.4 8.6 28.2 27.7 70 69.5 108.7 77.6 71.8 150.5 65.2 158.5 64.2 24.6-3 42.1-25.4 39-50-3-24.3-24.8-41.5-49.1-39.1-2.9 0.2-41.6 1.6-87.4-40.9-25.5-23.6-37.7-48.2-43.6-65.8 107.1-50.3 176.1-158.8 176.1-277.2-0.1-24.7-20.2-44.8-44.9-44.8zM735.8 247.6c-5.7 0-11.4 1.1-17 3.4-145.7 59.7-157.3 209.6-143 280.6 4.9 24.3 28.5 40 52.8 35.2 24.2-4.9 39.9-28.4 35.2-52.6-1-5.4-24.1-133.7 89-180 22.9-9.4 33.9-35.6 24.5-58.5-7-17.6-23.8-28.1-41.5-28.1z"  horiz-adv-x="1024" />

    
    <glyph glyph-name="zhaoche" unicode="&#59291;" d="M823.8-30.4c-58.9 0-109.1 37.9-127.6 90.7H326.9c-18.5-52.8-68.8-90.7-127.8-90.7-74.7 0-135.4 60.8-135.4 135.4V386.8c0 49.1 39.9 89 89 89L193.6 695c11.2 59.5 63.3 102.7 123.8 102.7h388.1c60.6 0 112.6-43.2 123.8-102.7l41.2-219.2c48.9-0.2 88.6-40.1 88.6-89V105c0-74.6-60.7-135.4-135.3-135.4zM289.7 149.8h443.7c24.7 0 44.8-20 44.8-44.8 0-25.3 20.5-45.9 45.7-45.9 25.2 0 45.7 20.6 45.7 45.9V386.3c-42.6 0.2-79.1 30.7-87 72.6l-41.2 219.7c-3.2 17.2-18.3 29.7-35.8 29.7H317.4c-17.5 0-32.6-12.5-35.8-29.7L240.4 459c-7.9-42.1-44.7-72.6-87.5-72.6l0.3-281.2c0-25.3 20.6-45.9 45.9-45.9s45.9 20.6 45.9 45.9c-0.1 24.6 20 44.6 44.7 44.6zM870 386.3h0.2-0.2z m0.5 89.1h0.2-0.2zM495.6 239.4c-105.8 0-191.9 86.1-191.9 191.9s86.1 191.9 191.9 191.9 191.9-86.1 191.9-191.9-86.1-191.9-191.9-191.9z m0 294.3c-56.4 0-102.3-45.9-102.3-102.4S439.2 329 495.6 329 598 374.9 598 431.3s-45.9 102.4-102.4 102.4zM674.3 212.1c-11 0-22.1 4-30.7 12.2l-74.7 70.5c-18 17-18.8 45.3-1.8 63.3s45.3 18.8 63.3 1.8l74.7-70.5c18-17 18.8-45.3 1.8-63.3-8.9-9.3-20.7-14-32.6-14z"  horiz-adv-x="1024" />

    
    <glyph glyph-name="gongshi" unicode="&#59292;" d="M204.6 414.6c-63.9 0-115.8 52-115.8 115.8s51.9 115.8 115.8 115.8 115.8-52 115.8-115.8-52-115.8-115.8-115.8z m0 141.7c-14.3 0-25.9-11.6-25.9-25.9 0-14.3 11.6-25.9 25.9-25.9 14.3 0 25.9 11.6 25.9 25.9 0 14.3-11.6 25.9-25.9 25.9zM179.3-28.3c-63.9 0-115.9 52-115.9 115.9s52 115.9 115.9 115.9 115.9-52 115.9-115.9-52-115.9-115.9-115.9z m0 142c-14.4 0-26.1-11.7-26.1-26.1 0-14.4 11.7-26.1 26.1-26.1 14.4 0 26.1 11.7 26.1 26.1-0.1 14.4-11.8 26.1-26.1 26.1zM763.6 14.9c-63.7 0-115.6 51.9-115.6 115.6 0 63.7 51.9 115.6 115.6 115.6 63.7 0 115.6-51.9 115.6-115.6 0-63.7-51.8-115.6-115.6-115.6z m0 141.3c-14.2 0-25.7-11.5-25.7-25.7s11.5-25.7 25.7-25.7 25.7 11.5 25.7 25.7-11.5 25.7-25.7 25.7zM846.2 331.1c-63.9 0-115.8 52-115.8 115.8s52 115.8 115.8 115.8S962 510.7 962 446.9s-52-115.8-115.8-115.8z m0 141.7c-14.3 0-25.9-11.6-25.9-25.9 0-14.3 11.6-25.9 25.9-25.9s25.9 11.6 25.9 25.9c0 14.3-11.6 25.9-25.9 25.9zM569 567.1c-63.6 0-115.4 51.8-115.4 115.4 0 63.6 51.8 115.4 115.4 115.4 63.6 0 115.4-51.8 115.4-115.4 0-63.7-51.8-115.4-115.4-115.4z m0 140.9c-14.1 0-25.5-11.5-25.5-25.5 0-14.1 11.5-25.5 25.5-25.5 14.1 0 25.5 11.5 25.5 25.5S583.1 708 569 708zM763.6 85.6c-9.1 0-18.2 2.7-26.1 8.4l-559 399.9c-20.2 14.4-24.8 42.5-10.4 62.7 14.4 20.2 42.5 24.9 62.7 10.4l559-399.9c20.2-14.4 24.8-42.5 10.4-62.7-8.8-12.3-22.6-18.8-36.6-18.8zM853.9 402c-10.1 0-20.2 3.4-28.6 10.3l-247 204.2-93.1-136c-14-20.5-41.9-25.7-62.5-11.7-20.5 14-25.7 42-11.7 62.5l120.9 176.6c7.1 10.4 18.3 17.4 30.8 19.1 12.5 1.8 25.2-1.8 34.9-9.9l284.9-235.6c19.1-15.8 21.8-44.1 6-63.3-8.8-10.7-21.7-16.2-34.6-16.2zM172.2 35.8c-8.4 0-16.8 2.3-24.4 7.2-20.8 13.5-26.8 41.3-13.3 62.1l142.8 220.7c13.5 20.8 41.3 26.8 62.1 13.3 20.8-13.5 26.8-41.3 13.3-62.1L210 56.3c-8.6-13.3-23.1-20.5-37.8-20.5z"  horiz-adv-x="1024" />

    
    <glyph glyph-name="lanqiu" unicode="&#59293;" d="M513-60.4c-246.1 0-446.3 200.2-446.3 446.3S266.9 832.2 513 832.2 959.3 632 959.3 385.9 759.1-60.4 513-60.4z m0 803.4c-196.9 0-357.1-160.2-357.1-357.1S316.1 28.8 513 28.8 870.1 189 870.1 385.9 709.9 743 513 743zM458.1-59c-14.4 0-28.4 6.9-37.1 19.7-13.8 20.4-8.4 48.2 12.1 61.9 6.5 4.5 163.5 115.7 135.9 359.6-30.8 272.6-192.8 340.4-199.7 343.2-22.8 9.1-34.1 34.9-25.2 57.8 8.9 22.8 34.4 34.3 57.3 25.5 8.9-3.4 219-87 256.2-416.4 34.1-299.5-166-438-174.6-443.7-7.6-5.2-16.3-7.6-24.9-7.6zM434.9 406.5c-159.9 0-286.2 47.2-292.7 49.6-23 8.8-34.6 34.5-25.9 57.6 8.8 23 34.5 34.6 57.6 25.9 1.7-0.6 178.4-66.1 366-35.6 184.8 30.1 275.5 129.7 276.4 130.7 16.4 18.4 44.6 20 63 3.6s20-44.6 3.6-63c-4.5-5.1-113-124.2-328.6-159.4-40.9-6.7-81.1-9.4-119.4-9.4zM198.7 91.2c-12.7 0-25.3 5.4-34.2 15.9-15.8 18.8-13.5 46.9 5.3 62.8 5.7 4.8 141.5 117.9 353.3 154.1 215.3 36.7 364.5-44.6 370.7-48.1 21.5-12 29.2-39.2 17.2-60.7s-39.1-29.3-60.6-17.3c-2.1 1.1-130.1 69.3-312.3 38.2-186.8-31.9-309.6-133.3-310.8-134.3-8.2-7.2-18.4-10.6-28.6-10.6z"  horiz-adv-x="1024" />

    
    <glyph glyph-name="jiegou" unicode="&#59294;" d="M177.5-34.1c-64.3 0-116.7 52.3-116.7 116.7s52.3 116.7 116.7 116.7S294.2 147 294.2 82.6s-52.4-116.7-116.7-116.7z m0 142.9c-14.5 0-26.2-11.8-26.2-26.2 0-14.5 11.8-26.2 26.2-26.2s26.2 11.8 26.2 26.2c0 14.4-11.8 26.2-26.2 26.2zM848.5 564.5c-64.3 0-116.7 52.3-116.7 116.7S784.2 797.8 848.5 797.8s116.7-52.3 116.7-116.7-52.4-116.6-116.7-116.6z m0 142.8c-14.5 0-26.2-11.8-26.2-26.2s11.8-26.2 26.2-26.2 26.2 11.8 26.2 26.2-11.7 26.2-26.2 26.2zM344.5 401.9c-64.3 0-116.7 52.3-116.7 116.7s52.3 116.7 116.7 116.7S461.2 583 461.2 518.6s-52.4-116.7-116.7-116.7z m0 142.8c-14.5 0-26.2-11.8-26.2-26.2 0-14.5 11.8-26.2 26.2-26.2 14.5 0 26.2 11.8 26.2 26.2 0 14.5-11.7 26.2-26.2 26.2zM677.4 92.6c-64.3 0-116.7 52.3-116.7 116.7S613 325.9 677.4 325.9 794 273.6 794 209.3s-52.3-116.7-116.6-116.7z m0 142.9c-14.5 0-26.2-11.8-26.2-26.2s11.8-26.2 26.2-26.2 26.2 11.8 26.2 26.2-11.8 26.2-26.2 26.2zM177.5 37.3c-5.4 0-10.8 1-16.2 3-23.3 8.9-35 35.1-26.1 58.4l167 436c5.4 14 17.4 24.5 32 27.9 14.6 3.4 30-0.7 41-10.9L658 288.9l148 407.6c8.5 23.5 34.5 35.5 57.9 27.1 23.5-8.5 35.6-34.5 27.1-57.9L719.9 193.9c-5.2-14.3-17.2-25-31.9-28.5-14.8-3.5-30.3 0.5-41.4 10.8L362.8 439.8 219.7 66.4c-6.9-18-24-29.1-42.2-29.1z"  horiz-adv-x="1024" />

    
    <glyph glyph-name="shouyi" unicode="&#59295;" d="M709.8 4c-15 0-30 3.2-44.1 9.7-25.8 11.9-45.3 33.1-55 59.8l-7.2 19.8c-43.1-12-89.6-15.5-134-10.4l-4.2-10.5c-10.6-26.6-30.9-47.5-57.3-58.7-26.4-11.2-55.5-11.4-82-0.5l-58.2 23.9c-26.7 11-48.1 32.7-58.6 59.6s-9.6 57.4 2.6 83.5l18.3 39.4c-34.1 41.4-71.3 98.6-79.3 168-8.2 71 9.1 143.9 48.8 205.3C295 741 494.2 800.7 653.2 729.1c1.4-0.6 6.3-3.2 12.2-6.5 20.5 10.8 53.1 25 97.5 34.7 64.5 14.1 125.1 2 127.6 1.5 13.7-2.8 25.3-11.8 31.4-24.4 6.1-12.6 5.9-27.3-0.4-39.8l-71.2-139.7 78.2-24.3c20.5-6.4 33.6-26.4 31.2-47.7l-20.1-180c-2.4-21.4-19.7-38.1-41.2-39.7-0.9-0.1-23.8-2.2-50-13.4-4.9-2.1-9-4.5-12.3-7l29-72.6c10.6-26.6 10.1-55.6-1.5-81.7-11.5-26.1-32.6-46.1-59.4-56.1L747 10.9c-12.1-4.7-24.7-6.9-37.2-6.9z m-79.3 191.2c6 0 12-1.2 17.7-3.7 11.3-4.9 20.2-14.2 24.4-25.9l22.3-61.6c2-5.4 6-8 8.3-9 2.3-1 6.9-2.5 12.2-0.4l57.2 21.5c5.4 2 7.9 6.2 8.9 8.5s2.4 6.9 0.2 12.3l-39 97.7c-4.7 11.7-4.2 24.8 1.3 36.2 3.3 6.7 21.9 41.3 69.1 61.4 14.9 6.3 29 10.7 41 13.8l12.3 110.1-93.6 29.2c-12.6 3.9-22.8 13.2-28 25.4-5.1 12.2-4.6 26 1.4 37.7l64 125.6c-9.2-0.7-18.8-2-28.4-4.1-57.3-12.5-88.2-34.3-88.5-34.5-23.9-17.7-44.8-6-71.2 8.9-3.2 1.8-5.9 3.3-7.2 4-116.2 52.3-269.4 6.2-340.1-103.5-28-43.4-40.8-96.8-35-146.5 5.1-44.4 28.7-87.9 76.4-140.9 12-13.3 14.9-32.5 7.3-48.8L293 143c-2.6-5.7-1.4-10.7-0.4-13.2 1-2.5 3.5-7 9.3-9.4l58.2-23.9c5.7-2.4 10.5-1 12.9 0.1 2.4 1 6.8 3.6 9 9.2l17.6 44.3c8.2 20.7 30.4 32.2 51.9 27.1 18.6-4.4 38.3-6.6 58.5-6.6 35.7 0 70.2 7.1 102.5 21.2 5.8 2.1 11.9 3.4 18 3.4zM895 307.7h0.2-0.2zM199.2 465.7c-74.5 0-135.1 60.6-135.1 135.1 0 63.4 45 119 107 132.2 24.2 5.2 48-10.3 53.1-34.5 5.1-24.2-10.3-48-34.5-53.1-20.8-4.4-36-23.1-36-44.5 0-25.1 20.4-45.5 45.5-45.5 24.7 0 44.8-20.1 44.8-44.8 0-24.8-20.1-44.9-44.8-44.9zM673.8 431m-45.2 0a45.2 45.2 0 1 1 90.4 0 45.2 45.2 0 1 1-90.4 0Z"  horiz-adv-x="1024" />

    
    <glyph glyph-name="qiche_2" unicode="&#59296;" d="M825.2-27.799999999999955c-58.9 0-109.1 37.9-127.5 90.6h-369c-18.5-52.7-68.8-90.6-127.7-90.6-74.6 0-135.3 60.7-135.3 135.3V389c0 49.1 39.9 89 89 89l40.9 219c11.2 59.5 63.2 102.6 123.7 102.6H707c60.5 0 112.5-43.2 123.7-102.6l41.1-219c48.9-0.2 88.5-40.1 88.5-89v-281.5c0.1-74.6-60.6-135.3-135.1-135.3z m-533.6 180h443.3c24.7 0 44.7-20 44.7-44.7 0-25.3 20.5-45.9 45.7-45.9s45.7 20.6 45.7 45.9v281c-42.6 0.2-79.1 30.7-86.9 72.5l-41.2 219.5c-3.2 17.2-18.3 29.7-35.8 29.7H319.2c-17.5 0-32.5-12.5-35.8-29.7L242.2 461c-7.9-42-44.7-72.5-87.4-72.5l0.3-281c0-25.3 20.6-45.9 45.8-45.9s45.9 20.6 45.9 45.9c0 24.7 20.1 44.7 44.8 44.7z m579.8 236.3h0.2-0.2z m0.5 89h0.2-0.2zM679.4 384H344.3c-13.3 0-25.9 5.9-34.4 16.1-8.5 10.2-12 23.6-9.6 36.7L333.5 618c3.9 21.2 22.4 36.7 44 36.7h269.9c21.7 0 40.3-15.6 44-36.9l32.1-181.2c2.3-13-1.3-26.4-9.8-36.5-8.5-10.2-21-16.1-34.3-16.1z m-281.5 89.5H626l-16.2 91.7H414.7l-16.8-91.7z"  horiz-adv-x="1024" />

    
    <glyph glyph-name="shui" unicode="&#59297;" d="M516.6-64.4c-192.1 0-348.4 156.3-348.4 348.4 0 121.6 130.7 334.5 240.4 491.7 24.6 35.3 65 56.4 108 56.4s83.4-21.1 108-56.4C734.3 618.5 865 405.6 865 284c0-192.1-156.3-348.4-348.4-348.4z m0 806.9c-13.9 0-26.5-6.6-34.5-18.1C339.6 520.1 257.8 359.6 257.8 284c0-142.7 116.1-258.8 258.8-258.8 142.7 0 258.8 116.1 258.8 258.8 0 75.6-81.7 236.1-224.3 440.4-8 11.5-20.6 18.1-34.5 18.1zM480.7 107.6c-5.2 0-10.4 0.9-15.5 2.8-64.3 23.7-114.7 77-134.9 142.4-7.3 23.7 6 48.7 29.6 56 23.7 7.4 48.7-6 56-29.6 12-38.9 42-70.6 80.3-84.7 23.2-8.6 35.1-34.3 26.5-57.6-6.7-18.1-23.8-29.3-42-29.3z"  horiz-adv-x="1024" />

    
    <glyph glyph-name="shezhi_4" unicode="&#59298;" d="M235.9 379.29999999999995c-77.9 0-141.2 63.3-141.2 141.2S158 661.7 235.9 661.7 377 598.4 377 520.5s-63.3-141.2-141.1-141.2z m0 193c-28.5 0-51.7-23.2-51.7-51.7s23.2-51.7 51.7-51.7 51.7 23.2 51.7 51.7-23.2 51.7-51.7 51.7zM511.3 128.20000000000005c-77.9 0-141.2 63.3-141.2 141.2s63.3 141.2 141.2 141.2 141.2-63.3 141.2-141.2-63.3-141.2-141.2-141.2z m0 192.9c-28.5 0-51.7-23.2-51.7-51.7 0-28.5 23.2-51.7 51.7-51.7s51.7 23.2 51.7 51.7c0.1 28.5-23.1 51.7-51.7 51.7zM786.8 379.29999999999995c-77.9 0-141.2 63.3-141.2 141.2S709 661.7 786.8 661.7 928 598.4 928 520.5s-63.3-141.2-141.2-141.2z m0 193c-28.5 0-51.7-23.2-51.7-51.7s23.2-51.7 51.7-51.7c28.5 0 51.7 23.2 51.7 51.7s-23.2 51.7-51.7 51.7zM786.8-28.899999999999977c-24.7 0-44.7 20-44.7 44.7V314c0 24.7 20 44.7 44.7 44.7 24.7 0 44.7-20 44.7-44.7v-298.1c0-24.8-20-44.8-44.7-44.8zM786.8 682.1c-24.7 0-44.7 20-44.7 44.7v27c0 24.7 20 44.7 44.7 44.7 24.7 0 44.7-20 44.7-44.7v-27c0-24.7-20-44.7-44.7-44.7zM235.9-28.899999999999977c-24.7 0-44.7 20-44.7 44.7V314c0 24.7 20 44.7 44.7 44.7s44.7-20 44.7-44.7v-298.1c0-24.8-20-44.8-44.7-44.8zM235.9 682.1c-24.7 0-44.7 20-44.7 44.7v27c0 24.7 20 44.7 44.7 44.7s44.7-20 44.7-44.7v-27c0-24.7-20-44.7-44.7-44.7zM511.3 431.2c-24.7 0-44.7 20-44.7 44.7V753.8c0 24.7 20 44.7 44.7 44.7s44.7-20 44.7-44.7V476c0.1-24.7-20-44.8-44.7-44.8zM511.3-28.899999999999977c-24.7 0-44.7 20-44.7 44.7V63c0 24.7 20 44.7 44.7 44.7s44.7-20 44.7-44.7v-47.2c0.1-24.7-20-44.7-44.7-44.7z"  horiz-adv-x="1024" />

    
    <glyph glyph-name="yanjing-fang" unicode="&#59299;" d="M921.6 205.5c-20.3 0-38.8 13.7-43.9 34.3l-109.9 436-0.9 0.6c-19.5 11.5-52.1 30.7-84.2 30.7-25 0-45.3 20.3-45.3 45.3s20.3 45.3 45.3 45.3c56.8 0 104.5-28.1 130.2-43.2 3.9-2.3 7.1-4.3 9.5-5.5 14-5.1 24.7-16.9 28.4-31.5L965.6 262c6.1-24.3-8.6-48.9-32.9-55-3.7-1-7.4-1.5-11.1-1.5zM820.1 749.8c0.5-0.2 1-0.3 1.5-0.5-0.5 0.3-1.1 0.4-1.5 0.5zM110.5 213.8c-4.4 0-8.8 0.6-13.2 2-24 7.3-37.5 32.6-30.2 56.6l119 391.5c16.8 77.7 86.3 133.9 166 133.9 25 0 45.3-20.3 45.3-45.3s-20.3-45.3-45.3-45.3c-37.5 0-70.2-26.7-77.6-63.5-0.3-1.4-0.6-2.8-1.1-4.2L153.9 246c-6-19.6-23.9-32.2-43.4-32.2zM596.6 119H433.9c-25 0-45.3 20.3-45.3 45.3 0 25 20.3 45.3 45.3 45.3h162.7c25 0 45.3-20.3 45.3-45.3 0.1-25-20.2-45.3-45.3-45.3zM832.2-34.1H687.6c-75.2 0-136.3 61.2-136.3 136.3V226.4c0 75.1 61.2 136.3 136.3 136.3h144.6c75.2 0 136.3-61.2 136.3-136.3v-124.2c0-75.2-61.2-136.3-136.3-136.3zM687.6 272c-25.2 0-45.6-20.5-45.6-45.6v-124.2c0-25.2 20.5-45.6 45.6-45.6h144.6c25.2 0 45.6 20.5 45.6 45.6V226.4c0 25.2-20.5 45.6-45.6 45.6H687.6zM343-34.1H197.9c-75.2 0-136.3 61.2-136.3 136.3V226.4c0 75.1 61.1 136.3 136.3 136.3H343c75.2 0 136.3-61.2 136.3-136.3v-124.2c0-75.2-61.2-136.3-136.3-136.3zM197.9 272c-25.2 0-45.6-20.5-45.6-45.6v-124.2c0-25.2 20.5-45.6 45.6-45.6H343c25.2 0 45.6 20.5 45.6 45.6V226.4c0 25.2-20.5 45.6-45.6 45.6H197.9z"  horiz-adv-x="1024" />

    
    <glyph glyph-name="shuaka" unicode="&#59300;" d="M838 231.5H494.3c-24.9 0-45.2 20.2-45.2 45.2 0 24.9 20.2 45.2 45.2 45.2H838c20 0 36.4 16.3 36.4 36.3V671.1c0 20-16.3 36.4-36.4 36.4H298.1c-20 0-36.3-16.3-36.3-36.4v-330.6c0-24.9-20.2-45.2-45.2-45.2s-45.2 20.2-45.2 45.2V671.1c0 69.9 56.8 126.7 126.7 126.7H838c69.9 0 126.7-56.8 126.7-126.7v-312.9c0-69.9-56.9-126.7-126.7-126.7zM913.9 535.3H379.5c-24.9 0-45.2 20.2-45.2 45.2s20.2 45.2 45.2 45.2h534.4c24.9 0 45.2-20.2 45.2-45.2s-20.2-45.2-45.2-45.2zM237.4-30H106.5c-24.9 0-45.2 20.2-45.2 45.2s20.2 45.2 45.2 45.2h130.9c45.4 0 87.3 26.4 106.9 67.4 0.7 1.5 1.5 2.9 2.3 4.3l147.7 238.5c6.8 11 4.8 25.4-4.7 34.2-8.8 8.1-22.1 9.4-32.3 3.2L201.5 253.2c-21.4-12.9-49.1-6.1-62 15.3-12.9 21.3-6.1 49.1 15.3 62l255.9 154.7c44.4 26.8 101.9 21 140.1-13.9 41.5-38 50.1-100.4 20.5-148.3L424.6 86.4C389.7 15.6 316.5-30 237.4-30zM106.5 391.7c-15.1 0-29.9 7.6-38.5 21.4-13.1 21.2-6.6 49 14.6 62.2l110.1 68.1c21.2 13.1 49 6.6 62.2-14.7 13.1-21.2 6.6-49-14.6-62.2l-110.1-68.1c-7.3-4.5-15.6-6.7-23.7-6.7zM537.8 10.8c-6.3 0-12.7 1.3-18.9 4.1-22.7 10.5-32.6 37.3-22.1 59.9l101.7 220.7c10.4 22.7 37.2 32.6 59.9 22.1 22.7-10.5 32.6-37.3 22.1-59.9L578.8 37c-7.6-16.5-23.9-26.2-41-26.2zM698.2 10.8c-6.3 0-12.7 1.3-18.9 4.1-22.7 10.5-32.6 37.3-22.1 59.9l101.7 220.7c10.4 22.7 37.3 32.6 59.9 22.1 22.7-10.5 32.6-37.3 22.1-59.9L739.2 37c-7.6-16.5-24-26.2-41-26.2z"  horiz-adv-x="1024" />

    
    <glyph glyph-name="shoushi" unicode="&#59301;" d="M572.1-66H409.9C234.8-66 92.4 76.4 92.4 251.4c0 91.7 74.6 166.3 166.3 166.3h28.1V698.3c0 73.5 59.7 133.3 133.1 133.3 35.9 0 69.4-13.9 94.3-39.2 25-25 39-58.5 39-94.1v-158.6h125C816 539.7 928 427.6 928 289.9 928 93.6 768.3-66 572.1-66zM258.6 327.9c-42.2 0-76.5-34.3-76.5-76.5 0-125.6 102.2-227.7 227.7-227.7h162.3c146.7 0 266.1 119.4 266.1 266.1 0 88.3-71.8 160.1-160.1 160.1H508.2c-24.8 0-44.9 20.1-44.9 44.9V698.3c0 14.9-7 25-12.9 30.9-8.2 8.3-19 12.7-30.7 12.7-23.9 0-43.3-19.5-43.3-43.6v-325.5c0-24.8-20.1-44.9-44.9-44.9h-72.9zM331.6 224.4c-24.8 0-44.9 20.1-44.9 44.9V372.8c0 24.8 20.1 44.9 44.9 44.9s44.9-20.1 44.9-44.9v-103.5c0-24.8-20.1-44.9-44.9-44.9z"  horiz-adv-x="1024" />

    
    <glyph glyph-name="wenzhang" unicode="&#59302;" d="M666.7-31.4H289.2c-24.7 0-44.7 20-44.7 44.7 0 24.7 20 44.7 44.7 44.7h377.4c59.9 0 81.3 52.6 81.3 101.9V534.7c0 24.7 20 44.7 44.7 44.7 24.7 0 44.7-20 44.7-44.7v-374.8c0-112.7-70.2-191.3-170.6-191.3zM235.4 117.2c-24.7 0-44.7 20-44.7 44.7V606.7c0 105.3 85.7 191 191 191h364.6c117.2 0 212.5-95.3 212.5-212.5v-50.6c0-24.7-20-44.7-44.7-44.7H441.9c-24.7 0-44.7 20-44.7 44.7s20 44.7 44.7 44.7h427.6v5.9c0 67.9-55.2 123.1-123.1 123.1H381.7c-56.1 0-101.7-45.6-101.7-101.7v-444.8c0.1-24.6-19.9-44.6-44.6-44.6zM441.6 490c-24.7 0-44.7 20-44.7 44.7v50.6c0 43.8-23.6 84.7-61.6 106.7-21.4 12.3-28.7 39.7-16.3 61.1 12.3 21.4 39.7 28.7 61.1 16.3 65.5-37.9 106.2-108.4 106.2-184v-50.6c0-24.8-20-44.8-44.7-44.8zM289.2-32.2c-123.6 0-224.1 100.5-224.1 224.1v37.7c0 24.7 20 44.7 44.7 44.7h105.8c24.7 0 44.7-20 44.7-44.7s-20-44.7-44.7-44.7h-61c3.6-71.1 62.6-127.7 134.5-127.7 24.7 0 44.7-20 44.7-44.7 0.1-24.7-19.9-44.7-44.6-44.7zM643.5 331.8H380.8c-24.7 0-44.7 20-44.7 44.7 0 24.7 20 44.7 44.7 44.7h262.7c24.7 0 44.7-20 44.7-44.7 0-24.7-20-44.7-44.7-44.7zM493.4 184.9H380.8c-24.7 0-44.7 20-44.7 44.7s20 44.7 44.7 44.7h112.5c24.7 0 44.7-20 44.7-44.7s-20-44.7-44.6-44.7z"  horiz-adv-x="1024" />

    
    <glyph glyph-name="jiayou" unicode="&#59303;" d="M604.2-26.7h-498c-24.7 0-44.8 20.1-44.8 44.8V662.5c0 74.6 60.7 135.2 135.2 135.2h317.2C588.4 797.7 649 737 649 662.5v-644.4c0-24.7-20-44.8-44.8-44.8zM151 62.9h408.4V662.5c0 25.2-20.5 45.6-45.6 45.6H196.6c-25.2 0-45.6-20.5-45.6-45.6v-599.6zM835.5-26.7c-67.2 0-121.9 54.7-121.9 121.9V309.1c0 17.8-14.5 32.3-32.3 32.3h-77.1c-24.7 0-44.8 20.1-44.8 44.8 0 24.7 20.1 44.8 44.8 44.8h77.1c67.2 0 121.9-54.7 121.9-121.9v-213.9c0-17.8 14.5-32.3 32.3-32.3 17.8 0 32.3 14.5 32.3 32.3V527.4L722.3 726.5c-14.6 20-10.3 48 9.7 62.6 20 14.6 48 10.3 62.6-9.7l154.2-210.9c5.6-7.7 8.6-16.9 8.6-26.4v-446.8c0.1-67.3-54.6-122-121.9-122zM851.9 471c-24.7 0-44.8 20.1-44.8 44.8V621.3c0 24.7 20.1 44.8 44.8 44.8 24.7 0 44.8-20.1 44.8-44.8v-105.5c0-24.7-20.1-44.8-44.8-44.8zM604.2 471H242.9c-24.7 0-44.8 20.1-44.8 44.8 0 24.7 20.1 44.8 44.8 44.8h361.3c24.7 0 44.8-20.1 44.8-44.8 0-24.7-20-44.8-44.8-44.8z"  horiz-adv-x="1024" />

    
    <glyph glyph-name="shoubiao" unicode="&#59304;" d="M514.5 94.5c-159.3 0-289 129.6-289 289 0 160.4 129.6 290 289 290s289-129.6 289-289c0-160.3-129.7-290-289-290z m0 489.5c-110 0-199.4-89.5-199.4-199.4 0-111 89.5-200.4 199.4-200.4s199.4 89.5 199.4 199.4c0 110.9-89.4 200.4-199.4 200.4zM607.8-63.7H421.1c-48.1 0-87.2 39.1-87.2 87.3V179.3c0 24.7 20 44.8 44.8 44.8 24.7 0 44.8-20 44.8-44.8v-153.5h182.1V179.3c0 24.7 20 44.8 44.8 44.8s44.8-20 44.8-44.8v-155.7c-0.1-48.2-39.3-87.3-87.4-87.3zM650.3 544c-24.7 0-44.8 20-44.8 44.8V742.2H423.4v-153.5c0-24.7-20-44.8-44.8-44.8-24.7 0-44.8 20-44.8 44.8V744.5c0 48.1 39.1 87.3 87.2 87.3h186.7c48.1 0 87.2-39.1 87.2-87.3v-155.7c0.2-24.8-19.9-44.8-44.6-44.8zM613 339.3h-98.5c-24.7 0-44.8 20-44.8 44.8V511.6c0 24.7 20 44.8 44.8 44.8 24.7 0 44.8-20 44.8-44.8v-82.8H613c24.7 0 44.8-20 44.8-44.8s-20.1-44.7-44.8-44.7z"  horiz-adv-x="1024" />

    
    <glyph glyph-name="jiqi" unicode="&#59305;" d="M793.1-62H229.4C155-62 94.5-1.5 94.5 72.8V338.4c0 74.4 60.5 134.8 134.9 134.8h563.8c74.4 0 134.9-60.5 134.9-134.8v-265.6c-0.1-74.3-60.6-134.8-135-134.8zM229.4 383.4c-24.8 0-45-20.2-45-45v-265.6c0-24.8 20.2-45 45-45h563.8c24.8 0 45 20.2 45 45V338.4c0 24.8-20.2 45-45 45H229.4zM773.3 383.4H249.2c-24.8 0-44.9 20.1-44.9 44.9V701.7c0 74.2 60.4 134.6 134.6 134.6h344.7c74.2 0 134.6-60.4 134.6-134.6v-273.4c0-24.8-20.1-44.9-44.9-44.9z m-479.2 89.8h434.3V701.7c0 24.7-20.1 44.8-44.8 44.8H338.9c-24.7 0-44.8-20.1-44.8-44.8v-228.5zM408.9 541.3c-24.8 0-44.9 20.1-44.9 44.9v48.9c0 24.8 20.1 44.9 44.9 44.9 24.8 0 44.9-20.1 44.9-44.9v-48.9c0-24.8-20.1-44.9-44.9-44.9zM612.7 541.3c-24.8 0-44.9 20.1-44.9 44.9v48.9c0 24.8 20.1 44.9 44.9 44.9s44.9-20.1 44.9-44.9v-48.9c0-24.8-20.1-44.9-44.9-44.9z"  horiz-adv-x="1024" />

    
    <glyph glyph-name="shuju_2" unicode="&#59306;" d="M794.1-34.10000000000002H228.3c-73.9 0-134 60.1-134 133.9V665.7c0 73.9 60.1 134 134 134h565.8c73.9 0 133.9-60.1 133.9-134v-565.8c0-73.9-60.1-134-133.9-134zM228.3 709.5c-24.2 0-43.8-19.7-43.8-43.8v-565.8c0-24.2 19.7-43.8 43.8-43.8h565.8c24.2 0 43.8 19.6 43.8 43.8V665.7c0 24.2-19.6 43.8-43.8 43.8H228.3zM322.5 168.10000000000002c-24.9 0-45.1 20.2-45.1 45.1V552.4c0 24.9 20.2 45.1 45.1 45.1s45.1-20.2 45.1-45.1v-339.3c0-24.9-20.2-45-45.1-45zM514.9 168.10000000000002c-24.9 0-45.1 20.2-45.1 45.1V429.6c0 24.9 20.2 45.1 45.1 45.1s45.1-20.2 45.1-45.1v-216.5c0-24.9-20.2-45-45.1-45zM705 168.10000000000002c-24.9 0-45.1 20.2-45.1 45.1v93.7c0 24.9 20.2 45.1 45.1 45.1s45.1-20.2 45.1-45.1v-93.7c0-25-20.2-45.1-45.1-45.1z"  horiz-adv-x="1024" />

    
    <glyph glyph-name="qiandai" unicode="&#59307;" d="M516.6-62.3c-246 0-392.9 116.5-392.9 311.5 0 100.8 64.6 187.6 139 263.1-39.6 25.7-65.9 70.4-65.9 121.1 0 79.4 64.6 144 144 144 19.2 0 37.9-3.8 55.2-11.1 25.7 39.7 70.2 65.4 120.8 65.4 52.3 0 98.3-28 123.6-69.8 17 7.1 35.4 11 54.3 11 76.9 0 139.5-62.6 139.5-139.5 0-49.5-25.8-93-64.6-117.8 66.3-67.1 139.9-160.5 139.9-266.4 0-195-146.9-311.5-392.9-311.5z m-166 641.7c17.2 0 33.1-9.9 40.5-25.8 8.2-17.6 4.1-38.5-10.2-51.7-81.2-74.9-167.8-162.5-167.8-252.7 0-183.6 165.1-222.1 303.5-222.1s303.5 38.5 303.5 222.1c0 89.2-82.4 176.6-171.4 257.8-14.6 13.3-18.7 34.6-10.2 52.4 8.6 17.8 27.9 27.8 47.3 24.8 2.8-0.5 5.8-1.1 8.9-1.1 27.6 0 50.1 22.6 50.1 50.3 0 27.6-22.5 50.1-50.1 50.1-16.7 0-31.8-7.9-41.5-21.7-11.2-16.1-31.4-23-50.1-17.1-18.6 5.8-31.3 23.1-31.3 42.7 0 30.3-24.7 55-55 55-28.6 0-52-21.8-54.6-50.6-1.6-18.2-14-33.5-31.5-38.9-17.4-5.3-36.3 0.5-47.8 14.6-10.5 13-25.9 20.5-42.2 20.5-30.1 0-54.6-24.5-54.6-54.6 0-30.2 24.5-54.8 54.6-54.8 1.3 0 2.7 0.3 4.1 0.5 2 0.2 3.9 0.3 5.8 0.3zM614.5 262H418.8c-24.7 0-44.7 20-44.7 44.7 0 24.7 20 44.7 44.7 44.7h195.7c24.7 0 44.7-20 44.7-44.7 0-24.7-20-44.7-44.7-44.7zM614.5 149.9H418.8c-24.7 0-44.7 20-44.7 44.7s20 44.7 44.7 44.7h195.7c24.7 0 44.7-20 44.7-44.7s-20-44.7-44.7-44.7zM516.7 77.2c-24.7 0-44.7 20-44.7 44.7V289.7c0 24.7 20 44.7 44.7 44.7 24.7 0 44.7-20 44.7-44.7v-167.8c0-24.7-20.1-44.7-44.7-44.7zM502 284.4c-11.4 0-22.9 4.4-31.6 13.1l-74.9 74.9c-17.5 17.5-17.5 45.8 0 63.2 17.4 17.5 45.8 17.5 63.2 0l74.9-74.9c17.5-17.5 17.5-45.8 0-63.2-8.7-8.7-20.1-13.1-31.6-13.1zM529.9 284.4c-11.4 0-22.9 4.4-31.6 13.1-17.5 17.4-17.5 45.8 0 63.2l76.3 76.4c17.5 17.5 45.8 17.5 63.2 0 17.5-17.4 17.5-45.8 0-63.2l-76.3-76.4c-8.8-8.7-20.2-13.1-31.6-13.1z"  horiz-adv-x="1024" />

    
    <glyph glyph-name="biaoqing" unicode="&#59308;" d="M512.8-63.9h-0.2c-246.8 0.2-447.4 201-447.3 447.8 0.1 246.7 200.8 447.3 447.5 447.3h0.2c119.5-0.1 231.9-46.7 316.4-131.2 84.5-84.6 131-197 130.9-316.5-0.1-246.7-200.8-447.4-447.5-447.4z m0 805.6c-197.3 0-357.9-160.5-358-357.9-0.1-197.4 160.4-358.1 357.9-358.2h0.2c197.4 0 357.9 160.5 358 357.9 0.1 95.6-37.1 185.6-104.7 253.2s-157.6 105-253.2 105h-0.2zM363 379.3h-78.3c-24.7 0-44.7 20.1-44.7 44.8 0 24.7 20.1 44.7 44.8 44.7h78.3c24.7 0 44.7-20.1 44.7-44.8s-20.1-44.7-44.8-44.7zM737.1 379.1h-78.3c-24.7 0-44.7 20.1-44.7 44.8s20.1 44.7 44.8 44.7h78.3c24.7 0 44.7-20.1 44.7-44.8s-20.1-44.7-44.8-44.7zM408 266.1c-22.4 0-35.3-25.7-21.8-43.5 29-38.2 74.8-62.9 126.5-62.9s97.5 24.6 126.6 62.8c13.6 17.8 0.6 43.5-21.8 43.5l-209.5 0.1zM512.8 114.9c-0.1 0-0.1 0 0 0-64.3 0-123.4 29.4-162.2 80.6-16.6 21.9-19.3 50.7-7.1 75.3 12.3 24.7 37 40.1 64.5 40.1l209.5-0.1c27.6 0 52.3-15.4 64.5-40.1 12.2-24.6 9.4-53.5-7.2-75.3-38.8-51.2-97.9-80.5-162-80.5z m-59.9 106.4c17.7-10.9 38.3-16.9 59.8-16.9h0.1c21.5 0 42.1 5.9 59.8 16.8l-119.7 0.1z"  horiz-adv-x="1024" />

    
    <glyph glyph-name="huati" unicode="&#59309;" d="M879.6 484H143c-24.7 0-44.6 20-44.6 44.6s20 44.6 44.6 44.6h736.6c24.7 0 44.6-20 44.6-44.6S904.3 484 879.6 484zM879.6 196.4H143c-24.7 0-44.6 20-44.6 44.6 0 24.7 20 44.6 44.6 44.6h736.6c24.7 0 44.6-20 44.6-44.6 0.1-24.6-19.9-44.6-44.6-44.6zM326.7-28.1c-1.6 0-3.3 0.1-5 0.3-24.5 2.7-42.2 24.8-39.4 49.3l81.8 736.6c2.7 24.5 24.7 42.2 49.3 39.4 24.5-2.7 42.2-24.8 39.4-49.3L371 11.6c-2.5-22.8-21.8-39.7-44.3-39.7zM614.3-28.1c-1.6 0-3.3 0.1-5 0.3-24.5 2.7-42.2 24.8-39.4 49.3l81.8 736.6c2.7 24.5 24.7 42.2 49.3 39.4 24.5-2.7 42.2-24.8 39.4-49.3l-81.8-736.6c-2.5-22.8-21.9-39.7-44.3-39.7z"  horiz-adv-x="1024" />

    
    <glyph glyph-name="jingji" unicode="&#59310;" d="M513-61.7c-246.1 0-446.3 200.2-446.3 446.3S266.9 830.9 513 830.9s446.3-200.2 446.3-446.3S759.1-61.7 513-61.7z m0 803.4c-196.9 0-357.1-160.2-357.1-357.1 0-196.9 160.2-357.1 357.1-357.1s357.1 160.2 357.1 357.1c0 196.9-160.2 357.1-357.1 357.1zM914.7 340H111.3c-24.6 0-44.6 20-44.6 44.6s20 44.6 44.6 44.6h803.4c24.6 0 44.6-20 44.6-44.6 0-24.7-20-44.6-44.6-44.6zM593-52.6c-9 0-18 2.7-25.9 8.3-20.1 14.3-24.7 42.2-10.4 62.2 0.5 0.7 72 108.1 72 364.4 0 264.2-71 368.6-71.7 369.6-14.5 19.9-10.2 47.8 9.7 62.4 19.9 14.5 47.8 10.2 62.4-9.7 3.6-5 89-125 89-422.3 0-288.7-85-411.2-88.6-416.2-8.8-12.2-22.5-18.7-36.5-18.7zM431.2-52.5c-13.4 0-26.7 6.1-35.4 17.7-3.7 4.8-89.3 122-89.3 417.2 0 295.7 85.2 417.1 88.8 422.1 14.4 20 42.3 24.5 62.3 10.1 19.9-14.4 24.4-42 10.3-62-1.7-2.6-72.1-109.3-72.1-370.2 0-261 70.9-362.9 71.7-363.9 14.3-19.9 10-47.7-9.7-62.2-8.1-5.9-17.4-8.8-26.6-8.8z"  horiz-adv-x="1024" />

    
    <glyph glyph-name="yanjing-yuan" unicode="&#59311;" d="M257.5-30.1C148.6-30.1 60 58.5 60 167.4s88.6 197.5 197.5 197.5S455 276.3 455 167.4s-88.6-197.5-197.5-197.5z m0 304.7c-59.1 0-107.2-48.1-107.2-107.2s48.1-107.2 107.2-107.2 107.2 48.1 107.2 107.2-48.1 107.2-107.2 107.2zM765.1-30.1c-108.9 0-197.5 88.6-197.5 197.5s88.6 197.5 197.5 197.5 197.5-88.6 197.5-197.5S874-30.1 765.1-30.1z m0 304.7c-59.1 0-107.2-48.1-107.2-107.2S706 60.2 765.1 60.2s107.2 48.1 107.2 107.2c0.1 59.1-48 107.2-107.2 107.2zM914 154.8c-20.2 0-38.6 13.6-43.7 34.1L756 642.3c-7.9 38.7-40.4 65.2-77.8 65.2-24.9 0-45.1 20.2-45.1 45.1s20.2 45.1 45.1 45.1c80.1 0 149.9-57 165.8-135.5l113.8-451.4c6.1-24.2-8.6-48.7-32.7-54.8-3.8-0.8-7.5-1.2-11.1-1.2zM108.7 155c-3.8 0-7.7 0.5-11.5 1.5-24.1 6.3-38.5 31-32.2 55.1l118.7 452c16.4 77.8 85.8 134.2 165.5 134.2 24.9 0 45.1-20.2 45.1-45.1s-20.2-45.1-45.1-45.1c-37.4 0-69.9-26.6-77.3-63.2-0.2-0.9-0.4-1.7-0.6-2.5l-119-453.2c-5.3-20.3-23.6-33.7-43.6-33.7zM612.8 122.3H409.9c-24.9 0-45.1 20.2-45.1 45.1s20.2 45.1 45.1 45.1h202.9c24.9 0 45.1-20.2 45.1-45.1s-20.2-45.1-45.1-45.1z"  horiz-adv-x="1024" />

    
    <glyph glyph-name="qushi" unicode="&#59312;" d="M541.8-32.5h-61.1c-50.6 0-91.8 41.2-91.8 91.8V282.4c0 50.6 41.2 91.8 91.8 91.8h61.1c50.6 0 91.8-41.2 91.8-91.8v-223.1c0-50.7-41.1-91.8-91.8-91.8z m-61.1 316.2l-1.3-224.4 62.5-1.3c0.7 0 1.3 0.6 1.3 1.3V282.4l-62.5 1.3zM834.9-32.5h-61.1c-50.6 0-91.8 41.2-91.8 91.8V486.5c0 50.6 41.2 91.8 91.8 91.8h61.1c50.6 0 91.8-41.2 91.8-91.8v-427.3c0-50.6-41.2-91.7-91.8-91.7z m-61.2 520.4l-1.3-428.6 62.5-1.3c0.7 0 1.3 0.6 1.3 1.3V486.5l-62.5 1.4zM252.4-32.5h-61.1c-50.6 0-91.8 41.2-91.8 91.8v80.2c0 50.6 41.2 91.8 91.8 91.8h61.1c50.6 0 91.8-41.2 91.8-91.8v-80.2c0-50.7-41.2-91.8-91.8-91.8z m-61.1 173.3l-1.3-81.5 62.5-1.3c0.7 0 1.3 0.6 1.3 1.3v80.2l-62.5 1.3zM144.6 270.5c-11.6 0-23.2 4.4-32 13.3-17.7 17.7-17.6 46.3 0 64L526 760.7c17.7 17.6 46.3 17.6 64 0 17.7-17.7 17.6-46.3 0-64L176.6 283.8c-8.9-8.8-20.5-13.3-32-13.3zM588.4 531.3c-25 0-45.2 20.3-45.2 45.2V677.1c0 20.3-16.5 36.8-36.8 36.8H405.8c-25 0-45.2 20.3-45.2 45.2s20.3 45.2 45.2 45.2h100.6c70.2 0 127.2-57.1 127.2-127.2v-100.6c0-25-20.2-45.2-45.2-45.2z"  horiz-adv-x="1024" />

    
    <glyph glyph-name="shangchuan_2" unicode="&#59313;" d="M799.4-27.299999999999955H673.7c-24.6 0-44.5 19.9-44.5 44.5s19.9 44.5 44.5 44.5h125.7c19.5 0 35.3 15.8 35.3 35.3V673.4c0 19.5-15.8 35.3-35.3 35.3H224.6c-19.5 0-35.3-15.8-35.3-35.3V97c0-19.5 15.8-35.3 35.3-35.3h206.3c20 0 36.3 16.3 36.3 36.3l0.3 339.7c0 24.6 19.9 44.5 44.5 44.5s44.5-20 44.5-44.5l-0.3-339.7c-0.1-69.1-56.3-125.2-125.4-125.2H224.6c-68.6 0-124.3 55.8-124.3 124.3V673.4c0 68.6 55.8 124.3 124.3 124.3h574.9c68.6 0 124.3-55.8 124.3-124.3V97c0-68.5-55.8-124.3-124.4-124.3zM591.5 348.79999999999995h-159c-18 0-34.2 10.8-41.1 27.5-6.9 16.6-3.1 35.8 9.7 48.5l79.5 79.5c17.4 17.4 45.6 17.4 62.9 0l79.5-79.5c12.7-12.7 16.5-31.9 9.7-48.5-7-16.7-23.2-27.5-41.2-27.5z"  horiz-adv-x="1024" />

    
    <glyph glyph-name="shoudiantong" unicode="&#59314;" d="M593.6 234.8c-11.7 0-23.2 4.6-31.8 13.2L372.4 437.5c-12.5 12.5-16.5 31.3-10.2 47.8l102.7 268.9c5.4 14.2 17.7 24.7 32.6 27.9 14.9 3.2 30.4-1.4 41.2-12.2l358.1-358.1a44.91 44.91 0 0 0 12.1-41.4c-3.3-15-13.9-27.2-28.3-32.5L609.2 237.6c-5.1-1.8-10.3-2.8-15.6-2.8zM456.5 480.4L605 331.9l178.5 66-259.4 259.4-67.6-176.9zM292.8-28.8c-36 0-69.8 14-95.3 39.5l-60 60.1C112 96.2 98 130 98 166s14 69.8 39.5 95.3l237.3 237.3c16.9 16.9 46.7 16.9 63.5 0l187.1-187.1c8.4-8.4 13.2-19.9 13.2-31.8s-4.7-23.3-13.2-31.8L388.1 10.7c-25.5-25.5-59.3-39.5-95.3-39.5z m113.8 432.1L201 197.8c-8.5-8.5-13.1-19.7-13.1-31.7s4.7-23.3 13.1-31.7l60.1-60.1c16.9-16.9 46.5-16.9 63.4 0L530 279.8 406.6 403.3zM768.7 597c-11.5 0-23 4.4-31.8 13.2-17.6 17.5-17.6 46 0 63.5l73.1 73.1c17.5 17.6 46 17.6 63.5 0 17.6-17.5 17.6-46 0-63.5l-73.1-73.1c-8.7-8.8-20.2-13.2-31.7-13.2zM859.5 508.7c-11.7 0-23.5 4.6-32.3 13.7-17.3 17.8-16.8 46.3 1 63.5l21 20.4c17.8 17.3 46.3 16.8 63.5-1 17.3-17.8 16.8-46.3-1-63.5l-21-20.4c-8.6-8.5-19.9-12.7-31.2-12.7zM678.8 688.6c-11.5 0-23.1 4.4-31.9 13.3-17.5 17.6-17.4 46 0.2 63.6l19.4 19.3c17.6 17.5 46 17.4 63.6-0.2 17.5-17.6 17.4-46-0.2-63.6l-19.4-19.3c-8.7-8.7-20.2-13.1-31.7-13.1zM336.2 166c-11.5 0-23 4.4-31.8 13.2-17.6 17.6-17.6 46 0 63.5l28.2 28.2c17.5 17.6 46 17.6 63.5 0 17.6-17.6 17.6-46 0-63.5L368 179.2c-8.8-8.8-20.3-13.2-31.8-13.2z"  horiz-adv-x="1024" />

    
    <glyph glyph-name="kafei" unicode="&#59315;" d="M475.3 126.7H338.5c-148.1 0-268.7 120.5-268.7 268.7v328c0 24.7 20 44.7 44.7 44.7h584.9c24.7 0 44.7-20 44.7-44.7v-328c-0.1-148.2-120.6-268.7-268.8-268.7z m-316.2 552v-283.3c0-98.9 80.5-179.3 179.3-179.3h136.9c98.9 0 179.3 80.4 179.3 179.3V678.7H159.1zM550.6 457.4H142.4c-24.7 0-44.7 20-44.7 44.7 0 24.7 20 44.7 44.7 44.7h408.2c24.7 0 44.7-20 44.7-44.7 0-24.7-20-44.7-44.7-44.7zM748.2-4.9H111.6c-24.7 0-44.7 20-44.7 44.7s20 44.7 44.7 44.7h636.6c24.7 0 44.7-20 44.7-44.7s-20-44.7-44.7-44.7zM807.5 349.2H699.3c-24.7 0-44.7 20-44.7 44.7 0 24.7 20 44.7 44.7 44.7h108.2c35 0 63.5 28.5 63.5 63.5s-28.5 63.5-63.5 63.5H699.3c-24.7 0-44.7 20-44.7 44.7 0 24.7 20 44.7 44.7 44.7h108.2c84.3 0 152.8-68.6 152.8-152.9s-68.5-152.9-152.8-152.9z"  horiz-adv-x="1024" />

    
    <glyph glyph-name="canju" unicode="&#59316;" d="M293.3-62.8c-24.7 0-44.6 20-44.6 44.6V452.2c0 24.7 20 44.6 44.6 44.6 24.7 0 44.6-20 44.6-44.6v-470.3c0-24.7-20-44.7-44.6-44.7zM743.1-62.8c-24.7 0-44.6 20-44.6 44.6V452.2c0 24.7 20 44.6 44.6 44.6s44.6-20 44.6-44.6v-470.3c0.1-24.7-19.9-44.7-44.6-44.7zM293.3 552.9c-24.7 0-44.6 20-44.6 44.6v188c0 24.7 20 44.6 44.6 44.6 24.7 0 44.6-20 44.6-44.6v-188c0-24.6-20-44.6-44.6-44.6zM293.3 407.5C185.6 407.5 98 495.1 98 602.8V785.5c0 24.7 20 44.6 44.6 44.6s44.6-20 44.6-44.6v-182.7c0-58.4 47.5-106 106-106s106 47.5 106 106V785.5c0 24.7 20 44.6 44.6 44.6s44.6-20 44.6-44.6v-182.7c0.1-107.7-87.5-195.3-195.1-195.3zM743.1 407.5c-115.8 0-184.9 63.8-184.9 170.6 0 121.4 57.9 252 184.9 252 112.3 0 184.9-98.9 184.9-252 0-106.8-69.1-170.6-184.9-170.6z m0 333.3c-70.1 0-95.6-97.3-95.6-162.7 0-37.9 10.9-81.3 95.6-81.3s95.6 43.5 95.6 81.3c0 16.7-2.7 162.7-95.6 162.7z"  horiz-adv-x="1024" />

    
    <glyph glyph-name="shalou" unicode="&#59317;" d="M775.3-63.6c-24.7 0-44.8 20.1-44.8 44.8v218c0 64.4-52.4 116.8-116.8 116.8H595c-36.7 0-66.6 29.9-66.6 66.6s29.9 66.6 66.6 66.6h18.8c64.4 0 116.8 52.4 116.8 116.8V784c0 24.7 20.1 44.8 44.8 44.8 24.7 0 44.8-20.1 44.8-44.8v-218c0-79.7-45.4-149-111.7-183.3 66.3-34.4 111.7-103.6 111.7-183.3v-218c-0.1-25-20.1-45-44.9-45zM250.5-63.6c-24.7 0-44.8 20.1-44.8 44.8v218c0 79.7 45.4 149 111.7 183.3-66.3 34.4-111.7 103.6-111.7 183.3v218c0 24.7 20.1 44.8 44.8 44.8s44.8-20.1 44.8-44.8v-218c0-64.4 52.4-116.8 116.8-116.8h18.8c36.7 0 66.6-29.9 66.6-66.6s-29.9-66.6-66.6-66.6h-18.8c-64.4 0-116.8-52.4-116.8-116.8v-218c0-24.6-20-44.6-44.8-44.6zM863 742.6H163c-24.7 0-44.8 20.1-44.8 44.8s20.1 44.8 44.8 44.8h700c24.7 0 44.8-20.1 44.8-44.8s-20-44.8-44.8-44.8zM863-63.6H163c-24.7 0-44.8 20.1-44.8 44.8 0 24.7 20.1 44.8 44.8 44.8h700c24.7 0 44.8-20.1 44.8-44.8 0-24.8-20-44.8-44.8-44.8z"  horiz-adv-x="1024" />

    
    <glyph glyph-name="canyin" unicode="&#59318;" d="M337.3 475.2c-11.5 0-23 4.4-31.7 13.1L162.3 631.6c-17.5 17.5-17.5 45.9 0 63.5 17.5 17.5 45.9 17.5 63.5 0L369 551.8c17.5-17.5 17.5-45.9 0-63.5-8.7-8.7-20.2-13.1-31.7-13.1zM841.6-29c-11.5 0-23 4.4-31.7 13.1L395.4 398.5c-17.5 17.5-17.5 45.9 0 63.5 17.5 17.5 45.9 17.5 63.5 0l414.4-414.4c17.5-17.5 17.5-45.9 0-63.5-8.8-8.8-20.3-13.1-31.7-13.1zM179.2-29c-11.5 0-23 4.4-31.7 13.1-17.5 17.5-17.5 45.9 0 63.5l467.9 467.9c17.5 17.5 45.9 17.5 63.5 0 17.5-17.5 17.5-45.9 0-63.5l-468-467.9c-8.8-8.8-20.3-13.1-31.7-13.1zM340.5 349.6c-42.8 0-85.7 16.3-118.3 48.9L75.7 545c-17.5 17.5-17.5 45.9 0 63.5 17.5 17.5 45.9 17.5 63.5 0L285.7 462c30.3-30.2 79.4-30.2 109.7 0 30.2 30.2 30.2 79.5 0 109.7L248.9 718.2c-17.5 17.5-17.5 45.9 0 63.5 17.5 17.5 45.9 17.5 63.5 0l146.5-146.5c65.2-65.2 65.2-171.4 0-236.6-32.7-32.7-75.5-49-118.4-49zM748.1 388.3c-44.7 0-90.3 21.3-132.8 63.7-81.3 81.3-85 174.6-10 249.6 85.1 85.1 217.4 136.1 306.5 46.9 78.8-78.8 60.4-199.1-46.9-306.5-35.8-35.8-75.9-53.7-116.8-53.7z m-79.3 249.9c-26.2-26.2-48.8-63.9 10-122.7 58.8-58.8 96.5-36.2 122.7-9.9 11.6 11.6 111.4 115.1 46.9 179.6-48.6 48.5-134-1.5-179.6-47z"  horiz-adv-x="1024" />

    
    <glyph glyph-name="huojian" unicode="&#59319;" d="M583-32.3c-11.5 0-23 4.4-31.7 13.2L110.9 421.2c-8.4 8.4-13.2 19.9-13.2 31.8 0 11.9 4.8 23.3 13.2 31.8l56.6 56.4c23.8 23.8 55.5 36.9 89.2 36.9s65.4-13.1 89.3-37l1.9-1.9 192.3 192.3c88.7 88.5 232.9 88.5 321.3 0 43-42.9 66.6-100 66.6-160.7 0-60.7-23.7-117.7-66.6-160.7L669.3 217.9l1.9-1.9c23.8-23.8 37-55.6 37-89.4 0-33.8-13.1-65.5-37-89.4l-56.4-56.4c-8.8-8.7-20.3-13.1-31.8-13.1zM206.2 452.9L583 76.1l24.7 24.7c6.9 6.9 10.7 16.1 10.7 25.9 0 9.8-3.8 19-10.7 25.9l-33.6 33.6c-17.5 17.5-17.5 45.9 0 63.5l224 224c26 26 40.3 60.5 40.3 97.2S824.1 642 798.1 668c-53.5 53.5-140.7 53.5-194.4-0.1l-224-224c-17.5-17.5-45.9-17.5-63.5 0l-33.6 33.6c-13.8 13.8-37.8 13.8-51.6 0l-24.8-24.6zM315.2-30.4c-11.5 0-23 4.4-31.7 13.2-17.5 17.5-17.5 45.9 0 63.5l45.8 45.8c17.5 17.5 45.9 17.5 63.5 0 17.5-17.5 17.5-45.9 0-63.5L347-17.3c-8.8-8.7-20.3-13.1-31.8-13.1zM591.3 484.4c-11.5 0-23 4.4-31.7 13.1-17.5 17.5-17.5 45.9 0 63.5l45.8 45.8c17.5 17.5 45.9 17.5 63.5 0 17.5-17.5 17.5-45.9 0-63.5l-45.8-45.8c-8.8-8.7-20.3-13.1-31.8-13.1zM146.6 138.2c-11.5 0-23 4.4-31.7 13.2-17.5 17.5-17.5 45.9 0 63.5l45.8 45.8c17.5 17.5 46 17.5 63.5 0s17.5-45.9 0-63.5l-45.8-45.8c-8.8-8.8-20.3-13.2-31.8-13.2z"  horiz-adv-x="1024" />

    
    <glyph glyph-name="shouyinji" unicode="&#59320;" d="M797.7-64.8H219.3c-69.4 0-125.8 56.4-125.8 125.8V547.4c0 69.4 56.4 125.8 125.8 125.8 24.8 0 44.8-20.1 44.8-44.8s-20.1-44.8-44.8-44.8c-19.9 0-36.1-16.2-36.1-36.1V61c0-19.9 16.2-36.1 36.1-36.1h578.4c19.9 0 36.1 16.2 36.1 36.1V547.4c0 19.9-16.2 36.1-36.1 36.1H385c-24.8 0-44.8 20.1-44.8 44.8s20.1 44.8 44.8 44.8h412.7c69.4 0 125.8-56.4 125.8-125.8V61c0-69.3-56.4-125.8-125.8-125.8zM417 126.3c-98.1 0-178 79.8-178 178s79.8 177.9 178 177.9 177.9-79.8 177.9-177.9-79.8-178-177.9-178z m0 266.2c-48.7 0-88.3-39.6-88.3-88.3 0-48.7 39.6-88.3 88.3-88.3s88.3 39.6 88.3 88.3c-0.1 48.7-39.7 88.3-88.3 88.3zM709.5 379.5m-45.4 0a45.4 45.4 0 1 1 90.8 0 45.4 45.4 0 1 1-90.8 0ZM709.5 241.9m-45.4 0a45.4 45.4 0 1 1 90.8 0 45.4 45.4 0 1 1-90.8 0ZM385 583.5c-15.6 0-30.7 8.1-39 22.7-12.3 21.5-4.8 48.9 16.8 61.2l279.1 159c21.5 12.3 48.9 4.7 61.2-16.8 12.3-21.5 4.8-48.9-16.8-61.2l-279.1-159c-7-4-14.7-5.9-22.2-5.9z"  horiz-adv-x="1024" />

    
    <glyph glyph-name="guanjun" unicode="&#59321;" d="M513.3 122.9c-161.5 0-292.8 131.4-292.8 292.8V666.3c0 71 57.7 128.7 128.7 128.7h328.3c70.9 0 128.7-57.7 128.7-128.7v-250.5c0-161.5-131.4-292.9-292.9-292.9zM349.2 704.8c-21.3 0-38.6-17.3-38.6-38.6v-250.5c0-111.7 91-202.7 202.7-202.7s202.8 91 202.8 202.8V666.3c0 21.3-17.3 38.6-38.6 38.6H349.2zM626-32.2H400.7c-24.9 0-45 20.2-45 45 0 24.9 20.2 45 45 45H626c24.9 0 45-20.2 45-45s-20.1-45-45-45zM827.1 389.9h-66c-24.9 0-45 20.2-45 45V611.4c0 24.9 20.2 45 45 45h66c73.5 0 133.3-59.8 133.3-133.3 0-73.4-59.8-133.2-133.3-133.2zM806.2 480h20.9c23.8 0 43.2 19.4 43.2 43.2 0 23.8-19.4 43.2-43.2 43.2h-20.9V480zM265.6 389.9h-66c-73.5 0-133.3 59.8-133.3 133.3 0 73.5 59.8 133.3 133.3 133.3h66c24.9 0 45-20.2 45-45v-176.4c0-25.1-20.1-45.2-45-45.2z m-66 176.4c-23.8 0-43.2-19.4-43.2-43.2 0-23.8 19.4-43.2 43.2-43.2h20.9v86.3h-20.9zM513.3-32.2c-24.9 0-45 20.2-45 45V168c0 24.9 20.2 45 45 45s45-20.2 45-45v-155.2c0.1-24.8-20.1-45-45-45z"  horiz-adv-x="1024" />

    
    <glyph glyph-name="piaoliuping" unicode="&#59322;" d="M120.3-5.8c-7.8 0-15.7 2-22.9 6.3-21.2 12.6-28.1 40.1-15.4 61.2l243.9 408.1c33.4 57.8 102.7 83.5 167.7 67.1l51.4 89c-7.6 10.1-13.4 21.5-17.2 33.8-8.6 28-5.4 57.1 9 82l2.6 4.5c29 50.3 95.2 66.6 147.6 36.4l120.9-69.8c24.8-14.3 43.1-37.1 51.3-64 8.6-28 5.4-57.1-9-82l-2.6-4.5c-21.5-37.2-63.2-55.8-104.6-50.8l-51.4-89c46.9-48.3 59.2-121.2 25.6-179.5l-33.5-57.3c-12.4-21.3-39.8-28.4-61.1-16-21.3 12.4-28.4 39.8-16 61.1l33.4 57.1c16.3 28.2 3.6 66.4-28.4 84.9-21.3 12.3-28.8 39.7-16.5 61.1L683.5 587c6 10.3 15.8 17.8 27.3 20.8s23.8 1.3 34-4.7c9.4-5.4 21.1-3.7 25.5 3.7l2.6 4.5c2.4 4.1 1.8 8.4 0.9 11.3-0.9 3-3.5 8.7-10.5 12.7l-120.9 69.8c-9.6 5.5-21.3 3.8-25.6-3.7l-2.6-4.5c-2.4-4.1-1.8-8.4-0.9-11.3 0.9-3 3.5-8.7 10.5-12.7 21.3-12.3 28.7-39.6 16.3-61l-88.4-153.1c-5.9-10.3-15.7-17.7-27.1-20.8-11.5-3.1-23.6-1.5-33.9 4.5-32 18.5-71.4 10.4-87.9-18.1L158.7 16c-8.4-14-23.2-21.8-38.4-21.8zM751.7-26.3c-49.1 0-81.5 22.9-107.4 41.3-24.1 17.1-43.2 30.6-76.9 30.6-11.6 0-17.5-4.1-35.4-20.2-23.1-20.6-58-51.8-124.4-51.8-61.6 0-94.3 26.7-118.3 46.2-19.7 16.1-31.7 25.8-60.6 25.8-59 0-76-38.5-77.7-42.9-9-22.6-34.5-34.3-57.3-25.8C70.9-14.6 59 10.1 67 33c13.1 37.9 62 102 161.6 102 60.7 0 93.3-26.5 117-45.9 20-16.3 32.1-26.1 61.9-26.1 32.3 0 45.3 11.6 64.9 29.1 20.2 18.1 48 42.9 94.9 42.9 62.2 0 100.6-27.2 128.6-47.1 23.1-16.4 36-24.9 55.8-24.9 47.8 0 80.6 9.3 140.7 39.6 22 11.1 48.8 2.3 60-19.7s2.3-48.8-19.7-60c-63.2-31.9-110.7-49.2-181-49.2z"  horiz-adv-x="1024" />

    
    </font>
</defs>
</svg>
